<?xml version="1.0" encoding="UTF-8" standalone="no"?>
<!-- Created with Inkscape (http://www.inkscape.org/) -->

<svg
   xmlns:dc="http://purl.org/dc/elements/1.1/"
   xmlns:cc="http://creativecommons.org/ns#"
   xmlns:rdf="http://www.w3.org/1999/02/22-rdf-syntax-ns#"
   xmlns:svg="http://www.w3.org/2000/svg"
   xmlns="http://www.w3.org/2000/svg"
   xmlns:sodipodi="http://sodipodi.sourceforge.net/DTD/sodipodi-0.dtd"
   xmlns:inkscape="http://www.inkscape.org/namespaces/inkscape"
   width="722"
   height="650"
   viewBox="0 0 191.02917 171.97916"
   version="1.1"
   id="svg6243"
   inkscape:version="0.92.3 (2405546, 2018-03-11)"
   sodipodi:docname="gama-korekcie.svg"
   inkscape:export-filename="gama-korekcie.svg.png"
   inkscape:export-xdpi="96.029999"
   inkscape:export-ydpi="96.029999">
  <defs
     id="defs6237">
    <clipPath
       id="clipPath6269"
       clipPathUnits="userSpaceOnUse">
      <path
         style="clip-rule:evenodd"
         inkscape:connector-curvature="0"
         id="path6267"
         d="M 182.24,104.75 H 673.29 V 528.56 H 182.24 Z" />
    </clipPath>
    <clipPath
       id="clipPath6279"
       clipPathUnits="userSpaceOnUse">
      <path
         style="clip-rule:evenodd"
         inkscape:connector-curvature="0"
         id="path6277"
         d="M 182.24,104.75 H 673.29 V 528.56 H 182.24 Z" />
    </clipPath>
    <clipPath
       id="clipPath6289"
       clipPathUnits="userSpaceOnUse">
      <path
         style="clip-rule:evenodd"
         inkscape:connector-curvature="0"
         id="path6287"
         d="M 182.24,104.75 H 673.29 V 528.56 H 182.24 Z" />
    </clipPath>
    <clipPath
       id="clipPath6299"
       clipPathUnits="userSpaceOnUse">
      <path
         style="clip-rule:evenodd"
         inkscape:connector-curvature="0"
         id="path6297"
         d="M 182.24,104.75 H 673.29 V 528.56 H 182.24 Z" />
    </clipPath>
    <clipPath
       id="clipPath6309"
       clipPathUnits="userSpaceOnUse">
      <path
         style="clip-rule:evenodd"
         inkscape:connector-curvature="0"
         id="path6307"
         d="M 182.24,104.75 H 673.29 V 528.56 H 182.24 Z" />
    </clipPath>
    <clipPath
       id="clipPath6319"
       clipPathUnits="userSpaceOnUse">
      <path
         style="clip-rule:evenodd"
         inkscape:connector-curvature="0"
         id="path6317"
         d="M 182.24,104.75 H 673.29 V 528.56 H 182.24 Z" />
    </clipPath>
    <clipPath
       id="clipPath6329"
       clipPathUnits="userSpaceOnUse">
      <path
         style="clip-rule:evenodd"
         inkscape:connector-curvature="0"
         id="path6327"
         d="M 182.24,104.75 H 673.29 V 528.56 H 182.24 Z" />
    </clipPath>
    <clipPath
       id="clipPath6339"
       clipPathUnits="userSpaceOnUse">
      <path
         style="clip-rule:evenodd"
         inkscape:connector-curvature="0"
         id="path6337"
         d="M 150.84,54.48 H 691.32 V 540.6 H 150.84 Z" />
    </clipPath>
    <clipPath
       id="clipPath6351"
       clipPathUnits="userSpaceOnUse">
      <path
         style="clip-rule:evenodd"
         inkscape:connector-curvature="0"
         id="path6349"
         d="M 150.84,54.48 H 691.32 V 540.6 H 150.84 Z" />
    </clipPath>
    <clipPath
       id="clipPath6363"
       clipPathUnits="userSpaceOnUse">
      <path
         style="clip-rule:evenodd"
         inkscape:connector-curvature="0"
         id="path6361"
         d="M 150.84,54.48 H 691.32 V 540.6 H 150.84 Z" />
    </clipPath>
    <clipPath
       id="clipPath6375"
       clipPathUnits="userSpaceOnUse">
      <path
         style="clip-rule:evenodd"
         inkscape:connector-curvature="0"
         id="path6373"
         d="M 150.84,54.48 H 691.32 V 540.6 H 150.84 Z" />
    </clipPath>
    <clipPath
       id="clipPath6387"
       clipPathUnits="userSpaceOnUse">
      <path
         style="clip-rule:evenodd"
         inkscape:connector-curvature="0"
         id="path6385"
         d="M 150.84,54.48 H 691.32 V 540.6 H 150.84 Z" />
    </clipPath>
    <clipPath
       id="clipPath6399"
       clipPathUnits="userSpaceOnUse">
      <path
         style="clip-rule:evenodd"
         inkscape:connector-curvature="0"
         id="path6397"
         d="M 150.84,54.48 H 691.32 V 540.6 H 150.84 Z" />
    </clipPath>
    <clipPath
       id="clipPath6411"
       clipPathUnits="userSpaceOnUse">
      <path
         style="clip-rule:evenodd"
         inkscape:connector-curvature="0"
         id="path6409"
         d="M 150.84,54.48 H 691.32 V 540.6 H 150.84 Z" />
    </clipPath>
    <clipPath
       id="clipPath6423"
       clipPathUnits="userSpaceOnUse">
      <path
         style="clip-rule:evenodd"
         inkscape:connector-curvature="0"
         id="path6421"
         d="M 150.84,54.48 H 691.32 V 540.6 H 150.84 Z" />
    </clipPath>
    <clipPath
       id="clipPath6435"
       clipPathUnits="userSpaceOnUse">
      <path
         style="clip-rule:evenodd"
         inkscape:connector-curvature="0"
         id="path6433"
         d="M 150.84,54.48 H 691.32 V 540.6 H 150.84 Z" />
    </clipPath>
    <clipPath
       id="clipPath6447"
       clipPathUnits="userSpaceOnUse">
      <path
         style="clip-rule:evenodd"
         inkscape:connector-curvature="0"
         id="path6445"
         d="M 150.84,54.48 H 691.32 V 540.6 H 150.84 Z" />
    </clipPath>
    <clipPath
       id="clipPath6459"
       clipPathUnits="userSpaceOnUse">
      <path
         style="clip-rule:evenodd"
         inkscape:connector-curvature="0"
         id="path6457"
         d="M 150.84,54.48 H 691.32 V 540.6 H 150.84 Z" />
    </clipPath>
    <clipPath
       id="clipPath6471"
       clipPathUnits="userSpaceOnUse">
      <path
         style="clip-rule:evenodd"
         inkscape:connector-curvature="0"
         id="path6469"
         d="M 150.84,54.48 H 691.32 V 540.6 H 150.84 Z" />
    </clipPath>
    <clipPath
       id="clipPath6483"
       clipPathUnits="userSpaceOnUse">
      <path
         style="clip-rule:evenodd"
         inkscape:connector-curvature="0"
         id="path6481"
         d="M 150.84,54.48 H 691.32 V 540.6 H 150.84 Z" />
    </clipPath>
    <clipPath
       id="clipPath6495"
       clipPathUnits="userSpaceOnUse">
      <path
         style="clip-rule:evenodd"
         inkscape:connector-curvature="0"
         id="path6493"
         d="M 150.84,54.48 H 691.32 V 540.6 H 150.84 Z" />
    </clipPath>
    <clipPath
       id="clipPath6507"
       clipPathUnits="userSpaceOnUse">
      <path
         style="clip-rule:evenodd"
         inkscape:connector-curvature="0"
         id="path6505"
         d="M 150.84,54.48 H 691.32 V 540.6 H 150.84 Z" />
    </clipPath>
    <clipPath
       id="clipPath6519"
       clipPathUnits="userSpaceOnUse">
      <path
         style="clip-rule:evenodd"
         inkscape:connector-curvature="0"
         id="path6517"
         d="M 150.84,54.48 H 691.32 V 540.6 H 150.84 Z" />
    </clipPath>
    <clipPath
       id="clipPath6531"
       clipPathUnits="userSpaceOnUse">
      <path
         style="clip-rule:evenodd"
         inkscape:connector-curvature="0"
         id="path6529"
         d="M 150.84,54.48 H 691.32 V 540.6 H 150.84 Z" />
    </clipPath>
    <clipPath
       id="clipPath6543"
       clipPathUnits="userSpaceOnUse">
      <path
         style="clip-rule:evenodd"
         inkscape:connector-curvature="0"
         id="path6541"
         d="M 150.84,54.48 H 691.32 V 540.6 H 150.84 Z" />
    </clipPath>
    <clipPath
       id="clipPath6555"
       clipPathUnits="userSpaceOnUse">
      <path
         style="clip-rule:evenodd"
         inkscape:connector-curvature="0"
         id="path6553"
         d="M 150.84,54.48 H 691.32 V 540.6 H 150.84 Z" />
    </clipPath>
    <clipPath
       id="clipPath6567"
       clipPathUnits="userSpaceOnUse">
      <path
         style="clip-rule:evenodd"
         inkscape:connector-curvature="0"
         id="path6565"
         d="M 150.84,54.48 H 691.32 V 540.6 H 150.84 Z" />
    </clipPath>
    <clipPath
       id="clipPath6579"
       clipPathUnits="userSpaceOnUse">
      <path
         style="clip-rule:evenodd"
         inkscape:connector-curvature="0"
         id="path6577"
         d="M 150.84,54.48 H 691.32 V 540.6 H 150.84 Z" />
    </clipPath>
    <clipPath
       id="clipPath6591"
       clipPathUnits="userSpaceOnUse">
      <path
         style="clip-rule:evenodd"
         inkscape:connector-curvature="0"
         id="path6589"
         d="M 150.84,54.48 H 691.32 V 540.6 H 150.84 Z" />
    </clipPath>
    <clipPath
       id="clipPath6603"
       clipPathUnits="userSpaceOnUse">
      <path
         style="clip-rule:evenodd"
         inkscape:connector-curvature="0"
         id="path6601"
         d="M 150.84,54.48 H 691.32 V 540.6 H 150.84 Z" />
    </clipPath>
    <clipPath
       id="clipPath6615"
       clipPathUnits="userSpaceOnUse">
      <path
         style="clip-rule:evenodd"
         inkscape:connector-curvature="0"
         id="path6613"
         d="M 150.84,54.48 H 691.32 V 540.6 H 150.84 Z" />
    </clipPath>
    <clipPath
       id="clipPath6627"
       clipPathUnits="userSpaceOnUse">
      <path
         style="clip-rule:evenodd"
         inkscape:connector-curvature="0"
         id="path6625"
         d="M 150.84,54.48 H 691.32 V 540.6 H 150.84 Z" />
    </clipPath>
    <clipPath
       id="clipPath6639"
       clipPathUnits="userSpaceOnUse">
      <path
         style="clip-rule:evenodd"
         inkscape:connector-curvature="0"
         id="path6637"
         d="M 150.84,54.48 H 691.32 V 540.6 H 150.84 Z" />
    </clipPath>
    <clipPath
       id="clipPath6651"
       clipPathUnits="userSpaceOnUse">
      <path
         style="clip-rule:evenodd"
         inkscape:connector-curvature="0"
         id="path6649"
         d="M 150.84,54.48 H 691.32 V 540.6 H 150.84 Z" />
    </clipPath>
    <clipPath
       id="clipPath6663"
       clipPathUnits="userSpaceOnUse">
      <path
         style="clip-rule:evenodd"
         inkscape:connector-curvature="0"
         id="path6661"
         d="M 150.84,54.48 H 691.32 V 540.6 H 150.84 Z" />
    </clipPath>
    <clipPath
       id="clipPath6675"
       clipPathUnits="userSpaceOnUse">
      <path
         style="clip-rule:evenodd"
         inkscape:connector-curvature="0"
         id="path6673"
         d="M 150.84,54.48 H 691.32 V 540.6 H 150.84 Z" />
    </clipPath>
    <clipPath
       id="clipPath6687"
       clipPathUnits="userSpaceOnUse">
      <path
         style="clip-rule:evenodd"
         inkscape:connector-curvature="0"
         id="path6685"
         d="M 150.84,54.48 H 691.32 V 540.6 H 150.84 Z" />
    </clipPath>
    <clipPath
       id="clipPath6699"
       clipPathUnits="userSpaceOnUse">
      <path
         style="clip-rule:evenodd"
         inkscape:connector-curvature="0"
         id="path6697"
         d="M 150.84,54.48 H 691.32 V 540.6 H 150.84 Z" />
    </clipPath>
    <clipPath
       id="clipPath6711"
       clipPathUnits="userSpaceOnUse">
      <path
         style="clip-rule:evenodd"
         inkscape:connector-curvature="0"
         id="path6709"
         d="M 150.84,54.48 H 691.32 V 540.6 H 150.84 Z" />
    </clipPath>
    <clipPath
       id="clipPath6723"
       clipPathUnits="userSpaceOnUse">
      <path
         style="clip-rule:evenodd"
         inkscape:connector-curvature="0"
         id="path6721"
         d="M 150.84,54.48 H 691.32 V 540.6 H 150.84 Z" />
    </clipPath>
    <clipPath
       id="clipPath6737"
       clipPathUnits="userSpaceOnUse">
      <path
         style="clip-rule:evenodd"
         inkscape:connector-curvature="0"
         id="path6735"
         d="M 150.84,54.48 H 691.32 V 540.6 H 150.84 Z" />
    </clipPath>
    <clipPath
       id="clipPath6751"
       clipPathUnits="userSpaceOnUse">
      <path
         style="clip-rule:evenodd"
         inkscape:connector-curvature="0"
         id="path6749"
         d="M 150.84,54.48 H 691.32 V 540.6 H 150.84 Z" />
    </clipPath>
    <clipPath
       id="clipPath6765"
       clipPathUnits="userSpaceOnUse">
      <path
         style="clip-rule:evenodd"
         inkscape:connector-curvature="0"
         id="path6763"
         d="M 150.84,54.48 H 691.32 V 540.6 H 150.84 Z" />
    </clipPath>
    <clipPath
       id="clipPath6779"
       clipPathUnits="userSpaceOnUse">
      <path
         style="clip-rule:evenodd"
         inkscape:connector-curvature="0"
         id="path6777"
         d="M 150.84,54.48 H 691.32 V 540.6 H 150.84 Z" />
    </clipPath>
    <clipPath
       id="clipPath6793"
       clipPathUnits="userSpaceOnUse">
      <path
         style="clip-rule:evenodd"
         inkscape:connector-curvature="0"
         id="path6791"
         d="M 150.84,54.48 H 691.32 V 540.6 H 150.84 Z" />
    </clipPath>
    <clipPath
       id="clipPath6807"
       clipPathUnits="userSpaceOnUse">
      <path
         style="clip-rule:evenodd"
         inkscape:connector-curvature="0"
         id="path6805"
         d="M 150.84,54.48 H 691.32 V 540.6 H 150.84 Z" />
    </clipPath>
    <clipPath
       id="clipPath6821"
       clipPathUnits="userSpaceOnUse">
      <path
         style="clip-rule:evenodd"
         inkscape:connector-curvature="0"
         id="path6819"
         d="M 150.84,54.48 H 691.32 V 540.6 H 150.84 Z" />
    </clipPath>
    <clipPath
       id="clipPath6833"
       clipPathUnits="userSpaceOnUse">
      <path
         style="clip-rule:evenodd"
         inkscape:connector-curvature="0"
         id="path6831"
         d="M 150.12,54 H 691.68 V 541.2 H 150.12 Z" />
    </clipPath>
  </defs>
  <sodipodi:namedview
     id="base"
     pagecolor="#ffffff"
     bordercolor="#666666"
     borderopacity="1.0"
     inkscape:pageopacity="0.0"
     inkscape:pageshadow="2"
     inkscape:zoom="1"
     inkscape:cx="560.80103"
     inkscape:cy="328.77292"
     inkscape:document-units="px"
     inkscape:current-layer="g6253"
     showgrid="false"
     fit-margin-top="0"
     fit-margin-left="0"
     fit-margin-right="0"
     fit-margin-bottom="0"
     inkscape:snap-global="false"
     inkscape:window-width="1920"
     inkscape:window-height="1018"
     inkscape:window-x="1912"
     inkscape:window-y="-8"
     inkscape:window-maximized="1"
     units="px" />
  <metadata
     id="metadata6240">
    <rdf:RDF>
      <cc:Work
         rdf:about="">
        <dc:format>image/svg+xml</dc:format>
        <dc:type
           rdf:resource="http://purl.org/dc/dcmitype/StillImage" />
        <dc:title></dc:title>
      </cc:Work>
    </rdf:RDF>
  </metadata>
  <g
     inkscape:label="Vrstva 1"
     inkscape:groupmode="layer"
     id="layer1"
     transform="translate(50.155589,43.70064)">
    <g
       transform="matrix(0.35277777,0,0,-0.35277777,-103.1868,147.35204)"
       inkscape:label="_gama-korekcie"
       id="g6253">
      <path
         inkscape:connector-curvature="0"
         id="path6257"
         style="fill:none;stroke:#d9d9d9;stroke-width:0.83060998;stroke-linecap:butt;stroke-linejoin:round;stroke-miterlimit:10;stroke-dasharray:none;stroke-opacity:1"
         d="M 182.34,132 H 672.55 M 182.34,158.31 H 672.55 M 182.34,184.76 H 672.55 M 182.34,211.21 H 672.55 M 182.34,237.65 H 672.55 M 182.34,264.1 h 490.21 m -490.21,26.44 h 490.21 m -490.21,26.45 h 490.21 m -490.21,26.45 h 490.21 m -490.21,26.44 h 490.21 m -490.21,26.45 h 490.21 m -490.21,26.45 h 490.21 m -490.21,26.44 h 490.21 m -490.21,26.32 h 490.21 m -490.21,26.44 h 490.21 m -490.21,26.49 h 490.21" />
      <path
         inkscape:connector-curvature="0"
         id="path6259"
         style="fill:none;stroke:#d9d9d9;stroke-width:0.83060998;stroke-linecap:butt;stroke-linejoin:round;stroke-miterlimit:10;stroke-dasharray:none;stroke-opacity:1"
         d="M 182.34,528.47 V 105.51 m 30.6,422.96 V 105.51 m 30.7,422.96 V 105.51 M 274.2,528.47 V 105.51 m 30.7,422.96 V 105.51 m 30.57,422.96 V 105.51 m 30.7,422.96 V 105.51 m 30.7,422.96 V 105.51 m 30.57,422.96 V 105.51 m 30.69,422.96 V 105.51 M 488.7,528.47 V 105.51 m 30.7,422.96 V 105.51 m 30.57,422.96 V 105.51 m 30.7,422.96 V 105.51 m 30.56,422.96 V 105.51 m 30.7,422.96 V 105.51 m 30.62,422.96 V 105.51" />
      <path
         inkscape:connector-curvature="0"
         id="path6261"
         style="fill:none;stroke:#d9d9d9;stroke-width:0.83060998;stroke-linecap:butt;stroke-linejoin:round;stroke-miterlimit:10;stroke-dasharray:none;stroke-opacity:1"
         d="M 182.34,105.51 H 672.55" />
      <path
         style="fill:none;stroke:#4472c4;stroke-width:2.49180007;stroke-linecap:round;stroke-linejoin:round;stroke-miterlimit:10;stroke-dasharray:none;stroke-opacity:1"
         d="m 183.3,105.51 c 153.82667,0 307.65333,0 461.48,0 17.1164,12.03914 13.78054,36.57494 17,54.90322 8.17541,121.93098 7.58929,244.27195 9.81,366.40678"
         id="path6271"
         inkscape:connector-curvature="0" />
      <path
         style="fill:none;stroke:#ed7d31;stroke-width:2.49180007;stroke-linecap:round;stroke-linejoin:round;stroke-miterlimit:10;stroke-dasharray:none;stroke-opacity:1"
         d="m 183.3,105.51 c 0,0 116.73242,-2.08985 120.63,0 3.89758,2.08986 18.06925,1.69418 26.81,3.3 8.74075,1.60582 15.63065,0.56483 24.9,1.65 9.26935,1.08517 18.02489,4.20062 28.72,6.61 10.69511,2.40938 22.55313,5.3673 34.47,9.92 11.91687,4.5527 25.41684,11.55069 36.38,18.17 10.96316,6.61931 17.59797,11.05925 29.70374,20.67541 12.10577,9.61616 23.27256,20.34041 39.23626,38.80459 15.9637,18.46418 32.60031,41.5885 51.7,76 19.09969,34.4115 43.30915,89.01294 58.4,130.525 15.09085,41.51206 26.42299,76.58045 37.34,115.655"
         id="path6281"
         inkscape:connector-curvature="0"
         sodipodi:nodetypes="czzzzzzzzzzc" />
      <path
         style="fill:none;stroke:#a5a5a5;stroke-width:2.49180007;stroke-linecap:round;stroke-linejoin:round;stroke-miterlimit:10;stroke-dasharray:none;stroke-opacity:1"
         d="m 183.3,105.51 c 11.53498,0.41966 24.55804,0.48055 34.46,1.65 9.90196,1.16945 15.11259,1.19957 24.9,3.3 9.78741,2.10043 20.92703,5.77802 32.55,9.92 11.62297,4.14198 24.06085,8.07549 36.38,13.21 12.31915,5.13451 24.4602,13.03855 36.39,19.83 11.9298,6.79145 24.11249,14.37997 34.46,21.48 10.34751,7.10003 14.4089,9.148 27.79378,20.67544 13.38488,11.52744 38.72685,32.65686 52.63622,47.06456 13.90937,14.4077 22.8941,22.94581 34.47,36.35 11.5759,13.40419 23.79302,26.84723 36.38,42.96 12.58698,16.11277 26.38983,33.9466 40.21,52.87 13.82017,18.9234 25.51556,36.06639 42.13,61.13 16.61444,25.06361 37.88825,59.8533 55.53,90.87"
         id="path6291"
         inkscape:connector-curvature="0"
         sodipodi:nodetypes="czzzzzzzzzzzzc" />
      <path
         style="fill:none;stroke:#ffc000;stroke-width:2.49180007;stroke-linecap:round;stroke-linejoin:round;stroke-miterlimit:10;stroke-dasharray:none;stroke-opacity:1"
         d="M 183.3,105.51 C 346.0635,245.94643 508.82672,386.38323 671.59,526.82"
         id="path6301"
         inkscape:connector-curvature="0"
         sodipodi:nodetypes="cc" />
      <path
         style="fill:none;stroke:#5b9bd5;stroke-width:2.49180007;stroke-linecap:round;stroke-linejoin:round;stroke-miterlimit:10;stroke-dasharray:none;stroke-opacity:1"
         d="m 183.3,105.51 c 0.40424,40.74913 20.03693,88.47294 36.38,114 16.34307,25.52706 25.12744,35.29212 36.38,47.91 11.25256,12.61788 14.61637,17.11221 28.73,29.74 14.11363,12.62779 40.96027,35.19057 55.53,46.27 14.56973,11.07943 19.51898,15.04142 30.64,23.13 11.12102,8.08858 24.57212,15.65255 36.38,23.13 11.80788,7.47745 22.63646,14.38457 34.47,21.48 11.83354,7.09543 24.27692,14.4175 36.38,21.48 12.10308,7.0625 24.26778,13.28488 36.38,19.82 12.11222,6.53512 24.09851,12.70583 36.38,18.18 12.28149,5.47417 24.12874,10.66986 36.39,16.52 12.26126,5.85014 24.25056,12.3951 36.38,18.17 12.12944,5.7749 28.30025,11.28058 36.38,14.87 8.07975,3.58942 8.38967,2.60792 11.49,6.61"
         id="path6311"
         inkscape:connector-curvature="0"
         sodipodi:nodetypes="czzzzzzzzzzzzzc" />
      <path
         style="fill:none;stroke:#70ad47;stroke-width:2.49180007;stroke-linecap:round;stroke-linejoin:round;stroke-miterlimit:10;stroke-dasharray:none;stroke-opacity:1"
         d="m 183.3,105.51 c 2.72225,59.87472 1.05459,137.40433 16.27125,179.365 15.21666,41.96067 30.87687,55.46462 44.99875,70.115 14.12188,14.65038 18.28585,18.83977 28.73,26.44 10.44415,7.60023 20.85485,15.1509 32.55,21.48 11.69515,6.3291 24.06879,14.23708 36.38,19.82 12.31121,5.58292 24.19968,11.27303 36.38,16.52 12.18032,5.24697 24.31759,10.04032 36.39,14.87 12.07241,4.82968 24.25406,9.08981 36.38,13.22 12.12594,4.13019 24.3173,7.47856 36.38,11.57 12.0627,4.09144 24.52717,8.16795 36.39,11.56 11.86283,3.39205 23.25687,5.53544 34.46,8.26 11.20313,2.72456 22.02383,5.31988 32.56,8.26 10.53617,2.94012 20.5145,5.42699 30.64,8.27 10.1255,2.84301 22.37293,4.74608 30.63,6.6 8.25707,1.85392 13.4682,1.95193 19.15,4.96"
         id="path6321"
         inkscape:connector-curvature="0"
         sodipodi:nodetypes="czzzzzzzzzzzzzzc" />
      <path
         style="fill:none;stroke:#264478;stroke-width:2.49180007;stroke-linecap:round;stroke-linejoin:round;stroke-miterlimit:10;stroke-dasharray:none;stroke-opacity:1"
         d="m 183.3,105.51 c 1.20795,74.3095 -0.31395,168.73706 2.87,222.965 3.18395,54.22794 25.18487,75.16013 44.06362,90.1503 18.87875,14.99017 20.26878,14.28958 31.57638,20.6247 11.3076,6.33512 24.43186,11.07619 36.38,16.53 11.94814,5.45381 24.2956,10.04145 36.38,13.21 12.0844,3.16855 23.07086,5.96872 34.47,8.27 11.39914,2.30128 22.04651,6.0608 31.93694,8.26 9.89043,2.1992 18.38763,3.07445 27.42306,4.95 9.03543,1.87555 17.89366,3.24884 26.81,4.96 8.91634,1.71116 17.21207,3.59529 26.18694,4.96 8.97487,1.36471 18.29235,3.78666 26.81,4.95 8.51765,1.16334 15.48483,2.56778 23.60306,3.31 8.11823,0.74222 16.27822,2.18234 24.26694,3.3 7.98872,1.11766 15.7443,1.85825 23.60306,3.31 7.85876,1.45175 16.42784,2.75696 24.27694,3.3 7.8491,0.54304 13.97082,0.8135 21.67306,1.65 7.70224,0.8365 15.36681,2.0561 22.98,3.31 7.61319,1.2539 15.78882,0.98614 22.98,3.3"
         id="path6331"
         inkscape:connector-curvature="0"
         sodipodi:nodetypes="czzzzzzzzzzzzzzzzzc" />
      <text
         id="text6343"
         style="font-variant:normal;font-weight:normal;font-size:9.96000004px;font-family:Calibri;-inkscape-font-specification:Calibri;writing-mode:lr-tb;fill:#595959;fill-opacity:1;fill-rule:nonzero;stroke:none"
         transform="scale(1,-1)"
         x="168.07001"
         y="-102.6">
        <tspan
           id="tspan6341"
           y="-102.6"
           x="168.07001">0</tspan>
      </text>
      <text
         id="text6355"
         style="font-variant:normal;font-weight:normal;font-size:9.98400021px;font-family:Calibri;-inkscape-font-specification:Calibri;writing-mode:lr-tb;fill:#595959;fill-opacity:1;fill-rule:nonzero;stroke:none"
         transform="scale(1,-1)"
         x="163.00999"
         y="-129.05">
        <tspan
           id="tspan6353"
           sodipodi:role="line"
           y="-129.05"
           x="163.00999 168.07401">16</tspan>
      </text>
      <text
         id="text6367"
         style="font-variant:normal;font-weight:normal;font-size:9.98400021px;font-family:Calibri;-inkscape-font-specification:Calibri;writing-mode:lr-tb;fill:#595959;fill-opacity:1;fill-rule:nonzero;stroke:none"
         transform="scale(1,-1)"
         x="163.00999"
         y="-155.5">
        <tspan
           id="tspan6365"
           sodipodi:role="line"
           y="-155.5"
           x="163.00999 168.07401">32</tspan>
      </text>
      <text
         id="text6379"
         style="font-variant:normal;font-weight:normal;font-size:9.96000004px;font-family:Calibri;-inkscape-font-specification:Calibri;writing-mode:lr-tb;fill:#595959;fill-opacity:1;fill-rule:nonzero;stroke:none"
         transform="scale(1,-1)"
         x="163.00999"
         y="-181.92">
        <tspan
           id="tspan6377"
           sodipodi:role="line"
           y="-181.92"
           x="163.00999 168.07402">48</tspan>
      </text>
      <text
         id="text6391"
         style="font-variant:normal;font-weight:normal;font-size:9.96000004px;font-family:Calibri;-inkscape-font-specification:Calibri;writing-mode:lr-tb;fill:#595959;fill-opacity:1;fill-rule:nonzero;stroke:none"
         transform="scale(1,-1)"
         x="163.00999"
         y="-208.37">
        <tspan
           id="tspan6389"
           sodipodi:role="line"
           y="-208.37"
           x="163.00999 168.07402">64</tspan>
      </text>
      <text
         id="text6403"
         style="font-variant:normal;font-weight:normal;font-size:9.98400021px;font-family:Calibri;-inkscape-font-specification:Calibri;writing-mode:lr-tb;fill:#595959;fill-opacity:1;fill-rule:nonzero;stroke:none"
         transform="scale(1,-1)"
         x="163.00999"
         y="-234.82001">
        <tspan
           id="tspan6401"
           sodipodi:role="line"
           y="-234.82001"
           x="163.00999 168.07401">80</tspan>
      </text>
      <text
         id="text6415"
         style="font-variant:normal;font-weight:normal;font-size:9.96000004px;font-family:Calibri;-inkscape-font-specification:Calibri;writing-mode:lr-tb;fill:#595959;fill-opacity:1;fill-rule:nonzero;stroke:none"
         transform="scale(1,-1)"
         x="163.00999"
         y="-261.23999">
        <tspan
           id="tspan6413"
           sodipodi:role="line"
           y="-261.23999"
           x="163.00999 168.07402">96</tspan>
      </text>
      <text
         id="text6427"
         style="font-variant:normal;font-weight:normal;font-size:9.96000004px;font-family:Calibri;-inkscape-font-specification:Calibri;writing-mode:lr-tb;fill:#595959;fill-opacity:1;fill-rule:nonzero;stroke:none"
         transform="scale(1,-1)"
         x="157.97"
         y="-287.69">
        <tspan
           id="tspan6425"
           sodipodi:role="line"
           y="-287.69"
           x="157.97 163.00999 168.05">112</tspan>
      </text>
      <text
         id="text6439"
         style="font-variant:normal;font-weight:normal;font-size:9.96000004px;font-family:Calibri;-inkscape-font-specification:Calibri;writing-mode:lr-tb;fill:#595959;fill-opacity:1;fill-rule:nonzero;stroke:none"
         transform="scale(1,-1)"
         x="157.97"
         y="-314.14001">
        <tspan
           id="tspan6437"
           sodipodi:role="line"
           y="-314.14001"
           x="157.97 163.00999 168.05">128</tspan>
      </text>
      <text
         id="text6451"
         style="font-variant:normal;font-weight:normal;font-size:9.98400021px;font-family:Calibri;-inkscape-font-specification:Calibri;writing-mode:lr-tb;fill:#595959;fill-opacity:1;fill-rule:nonzero;stroke:none"
         transform="scale(1,-1)"
         x="157.97"
         y="-340.57999">
        <tspan
           id="tspan6449"
           sodipodi:role="line"
           y="-340.57999"
           x="157.97 163.00999 168.04997">144</tspan>
      </text>
      <text
         id="text6463"
         style="font-variant:normal;font-weight:normal;font-size:9.96000004px;font-family:Calibri;-inkscape-font-specification:Calibri;writing-mode:lr-tb;fill:#595959;fill-opacity:1;fill-rule:nonzero;stroke:none"
         transform="scale(1,-1)"
         x="157.97"
         y="-367.01001">
        <tspan
           id="tspan6461"
           sodipodi:role="line"
           y="-367.01001"
           x="157.97 163.00999 168.05">160</tspan>
      </text>
      <text
         id="text6475"
         style="font-variant:normal;font-weight:normal;font-size:9.96000004px;font-family:Calibri;-inkscape-font-specification:Calibri;writing-mode:lr-tb;fill:#595959;fill-opacity:1;fill-rule:nonzero;stroke:none"
         transform="scale(1,-1)"
         x="157.97"
         y="-393.45999">
        <tspan
           id="tspan6473"
           sodipodi:role="line"
           y="-393.45999"
           x="157.97 163.00999 168.05">176</tspan>
      </text>
      <text
         id="text6487"
         style="font-variant:normal;font-weight:normal;font-size:9.98400021px;font-family:Calibri;-inkscape-font-specification:Calibri;writing-mode:lr-tb;fill:#595959;fill-opacity:1;fill-rule:nonzero;stroke:none"
         transform="scale(1,-1)"
         x="157.97"
         y="-419.89999">
        <tspan
           id="tspan6485"
           sodipodi:role="line"
           y="-419.89999"
           x="157.97 163.00999 168.04997">192</tspan>
      </text>
      <text
         id="text6499"
         style="font-variant:normal;font-weight:normal;font-size:9.98400021px;font-family:Calibri;-inkscape-font-specification:Calibri;writing-mode:lr-tb;fill:#595959;fill-opacity:1;fill-rule:nonzero;stroke:none"
         transform="scale(1,-1)"
         x="157.97"
         y="-446.35001">
        <tspan
           id="tspan6497"
           sodipodi:role="line"
           y="-446.35001"
           x="157.97 163.00999 168.04997">208</tspan>
      </text>
      <text
         id="text6511"
         style="font-variant:normal;font-weight:normal;font-size:9.96000004px;font-family:Calibri;-inkscape-font-specification:Calibri;writing-mode:lr-tb;fill:#595959;fill-opacity:1;fill-rule:nonzero;stroke:none"
         transform="scale(1,-1)"
         x="157.97"
         y="-472.78">
        <tspan
           id="tspan6509"
           sodipodi:role="line"
           y="-472.78"
           x="157.97 163.00999 168.05">224</tspan>
      </text>
      <text
         id="text6523"
         style="font-variant:normal;font-weight:normal;font-size:9.96000004px;font-family:Calibri;-inkscape-font-specification:Calibri;writing-mode:lr-tb;fill:#595959;fill-opacity:1;fill-rule:nonzero;stroke:none"
         transform="scale(1,-1)"
         x="157.97"
         y="-499.22">
        <tspan
           id="tspan6521"
           sodipodi:role="line"
           y="-499.22"
           x="157.97 163.00999 168.05">240</tspan>
      </text>
      <text
         id="text6535"
         style="font-variant:normal;font-weight:normal;font-size:9.98400021px;font-family:Calibri;-inkscape-font-specification:Calibri;writing-mode:lr-tb;fill:#595959;fill-opacity:1;fill-rule:nonzero;stroke:none"
         transform="scale(1,-1)"
         x="157.97"
         y="-525.66998">
        <tspan
           id="tspan6533"
           sodipodi:role="line"
           y="-525.66998"
           x="157.97 163.00999">255</tspan>
      </text>
      <text
         id="text6547"
         style="font-variant:normal;font-weight:normal;font-size:9.96000004px;font-family:Calibri;-inkscape-font-specification:Calibri;writing-mode:lr-tb;fill:#595959;fill-opacity:1;fill-rule:nonzero;stroke:none"
         transform="scale(1,-1)"
         x="180.78999"
         y="-89.639999">
        <tspan
           id="tspan6545"
           y="-89.639999"
           x="180.78999">0</tspan>
      </text>
      <text
         id="text6559"
         style="font-variant:normal;font-weight:normal;font-size:9.96000004px;font-family:Calibri;-inkscape-font-specification:Calibri;writing-mode:lr-tb;fill:#595959;fill-opacity:1;fill-rule:nonzero;stroke:none"
         transform="scale(1,-1)"
         x="208.92"
         y="-89.639999">
        <tspan
           id="tspan6557"
           sodipodi:role="line"
           y="-89.639999"
           x="208.92 213.96001">16</tspan>
      </text>
      <text
         id="text6571"
         style="font-variant:normal;font-weight:normal;font-size:9.96000004px;font-family:Calibri;-inkscape-font-specification:Calibri;writing-mode:lr-tb;fill:#595959;fill-opacity:1;fill-rule:nonzero;stroke:none"
         transform="scale(1,-1)"
         x="239.53999"
         y="-89.639999">
        <tspan
           id="tspan6569"
           sodipodi:role="line"
           y="-89.639999"
           x="239.53999 244.60402">32</tspan>
      </text>
      <text
         id="text6583"
         style="font-variant:normal;font-weight:normal;font-size:9.96000004px;font-family:Calibri;-inkscape-font-specification:Calibri;writing-mode:lr-tb;fill:#595959;fill-opacity:1;fill-rule:nonzero;stroke:none"
         transform="scale(1,-1)"
         x="270.19"
         y="-89.639999">
        <tspan
           id="tspan6581"
           sodipodi:role="line"
           y="-89.639999"
           x="270.19 275.25403">48</tspan>
      </text>
      <text
         id="text6595"
         style="font-variant:normal;font-weight:normal;font-size:9.96000004px;font-family:Calibri;-inkscape-font-specification:Calibri;writing-mode:lr-tb;fill:#595959;fill-opacity:1;fill-rule:nonzero;stroke:none"
         transform="scale(1,-1)"
         x="300.84"
         y="-89.639999">
        <tspan
           id="tspan6593"
           sodipodi:role="line"
           y="-89.639999"
           x="300.84 305.88">64</tspan>
      </text>
      <text
         id="text6607"
         style="font-variant:normal;font-weight:normal;font-size:9.96000004px;font-family:Calibri;-inkscape-font-specification:Calibri;writing-mode:lr-tb;fill:#595959;fill-opacity:1;fill-rule:nonzero;stroke:none"
         transform="scale(1,-1)"
         x="331.48999"
         y="-89.639999">
        <tspan
           id="tspan6605"
           sodipodi:role="line"
           y="-89.639999"
           x="331.48999 336.53">80</tspan>
      </text>
      <text
         id="text6619"
         style="font-variant:normal;font-weight:normal;font-size:9.96000004px;font-family:Calibri;-inkscape-font-specification:Calibri;writing-mode:lr-tb;fill:#595959;fill-opacity:1;fill-rule:nonzero;stroke:none"
         transform="scale(1,-1)"
         x="362.14001"
         y="-89.639999">
        <tspan
           id="tspan6617"
           sodipodi:role="line"
           y="-89.639999"
           x="362.14001 367.17999">96</tspan>
      </text>
      <text
         id="text6631"
         style="font-variant:normal;font-weight:normal;font-size:9.96000004px;font-family:Calibri;-inkscape-font-specification:Calibri;writing-mode:lr-tb;fill:#595959;fill-opacity:1;fill-rule:nonzero;stroke:none"
         transform="scale(1,-1)"
         x="390.23999"
         y="-89.639999">
        <tspan
           id="tspan6629"
           sodipodi:role="line"
           y="-89.639999"
           x="390.23999 395.30402 400.36804">112</tspan>
      </text>
      <text
         id="text6643"
         style="font-variant:normal;font-weight:normal;font-size:9.96000004px;font-family:Calibri;-inkscape-font-specification:Calibri;writing-mode:lr-tb;fill:#595959;fill-opacity:1;fill-rule:nonzero;stroke:none"
         transform="scale(1,-1)"
         x="420.89001"
         y="-89.639999">
        <tspan
           id="tspan6641"
           sodipodi:role="line"
           y="-89.639999"
           x="420.89001 425.92999 430.97">128</tspan>
      </text>
      <text
         id="text6655"
         style="font-variant:normal;font-weight:normal;font-size:9.96000004px;font-family:Calibri;-inkscape-font-specification:Calibri;writing-mode:lr-tb;fill:#595959;fill-opacity:1;fill-rule:nonzero;stroke:none"
         transform="scale(1,-1)"
         x="451.54001"
         y="-89.639999">
        <tspan
           id="tspan6653"
           sodipodi:role="line"
           y="-89.639999"
           x="451.54001 456.57999 461.62">144</tspan>
      </text>
      <text
         id="text6667"
         style="font-variant:normal;font-weight:normal;font-size:9.96000004px;font-family:Calibri;-inkscape-font-specification:Calibri;writing-mode:lr-tb;fill:#595959;fill-opacity:1;fill-rule:nonzero;stroke:none"
         transform="scale(1,-1)"
         x="482.16"
         y="-89.639999">
        <tspan
           id="tspan6665"
           sodipodi:role="line"
           y="-89.639999"
           x="482.16 487.22403 492.28806">160</tspan>
      </text>
      <text
         id="text6679"
         style="font-variant:normal;font-weight:normal;font-size:9.96000004px;font-family:Calibri;-inkscape-font-specification:Calibri;writing-mode:lr-tb;fill:#595959;fill-opacity:1;fill-rule:nonzero;stroke:none"
         transform="scale(1,-1)"
         x="512.81"
         y="-89.639999">
        <tspan
           id="tspan6677"
           sodipodi:role="line"
           y="-89.639999"
           x="512.81 517.87402 522.93805">176</tspan>
      </text>
      <text
         id="text6691"
         style="font-variant:normal;font-weight:normal;font-size:9.96000004px;font-family:Calibri;-inkscape-font-specification:Calibri;writing-mode:lr-tb;fill:#595959;fill-opacity:1;fill-rule:nonzero;stroke:none"
         transform="scale(1,-1)"
         x="543.46002"
         y="-89.639999">
        <tspan
           id="tspan6689"
           sodipodi:role="line"
           y="-89.639999"
           x="543.46002 548.5 553.53998">192</tspan>
      </text>
      <text
         id="text6703"
         style="font-variant:normal;font-weight:normal;font-size:9.96000004px;font-family:Calibri;-inkscape-font-specification:Calibri;writing-mode:lr-tb;fill:#595959;fill-opacity:1;fill-rule:nonzero;stroke:none"
         transform="scale(1,-1)"
         x="574.09998"
         y="-89.639999">
        <tspan
           id="tspan6701"
           sodipodi:role="line"
           y="-89.639999"
           x="574.09998 579.14001 584.17999">208</tspan>
      </text>
      <text
         id="text6715"
         style="font-variant:normal;font-weight:normal;font-size:9.96000004px;font-family:Calibri;-inkscape-font-specification:Calibri;writing-mode:lr-tb;fill:#595959;fill-opacity:1;fill-rule:nonzero;stroke:none"
         transform="scale(1,-1)"
         x="604.72998"
         y="-89.639999">
        <tspan
           id="tspan6713"
           sodipodi:role="line"
           y="-89.639999"
           x="604.72998 609.79401 614.85803">224</tspan>
      </text>
      <text
         id="text6727"
         style="font-variant:normal;font-weight:normal;font-size:9.96000004px;font-family:Calibri;-inkscape-font-specification:Calibri;writing-mode:lr-tb;fill:#595959;fill-opacity:1;fill-rule:nonzero;stroke:none"
         transform="scale(1,-1)"
         x="635.38"
         y="-89.639999">
        <tspan
           id="tspan6725"
           sodipodi:role="line"
           y="-89.639999"
           x="635.38 640.44403 645.50806">240</tspan>
      </text>
      <path
         inkscape:connector-curvature="0"
         id="path6729"
         style="fill:none;stroke:#4472c4;stroke-width:2.49180007;stroke-linecap:round;stroke-linejoin:round;stroke-miterlimit:10;stroke-dasharray:none;stroke-opacity:1"
         d="M 215.13,70.471 H 236.4" />
      <text
         id="text6741"
         style="font-variant:normal;font-weight:normal;font-size:9.96000004px;font-family:Calibri;-inkscape-font-specification:Calibri;writing-mode:lr-tb;fill:#595959;fill-opacity:1;fill-rule:nonzero;stroke:none"
         transform="scale(1,-1)"
         x="238.67999"
         y="-67.559998">
        <tspan
           id="tspan6739"
           sodipodi:role="line"
           y="-67.559998"
           x="238.67999 243.05244 245.30341 250.22363 252.59412 257.64383 260.13385 265.18356">γ = 0,01</tspan>
      </text>
      <path
         inkscape:connector-curvature="0"
         id="path6743"
         style="fill:none;stroke:#ed7d31;stroke-width:2.49180007;stroke-linecap:round;stroke-linejoin:round;stroke-miterlimit:10;stroke-dasharray:none;stroke-opacity:1"
         d="m 282.37,70.471 h 21.26" />
      <text
         id="text6755"
         style="font-variant:normal;font-weight:normal;font-size:9.96000004px;font-family:Calibri;-inkscape-font-specification:Calibri;writing-mode:lr-tb;fill:#595959;fill-opacity:1;fill-rule:nonzero;stroke:none"
         transform="scale(1,-1)"
         x="305.89999"
         y="-67.559998">
        <tspan
           id="tspan6753"
           sodipodi:role="line"
           y="-67.559998"
           x="305.89999 310.29236 312.54333 317.50339 319.88385 324.93356 327.48331 332.53305">γ = 0,25</tspan>
      </text>
      <path
         inkscape:connector-curvature="0"
         id="path6757"
         style="fill:none;stroke:#a5a5a5;stroke-width:2.49180007;stroke-linecap:round;stroke-linejoin:round;stroke-miterlimit:10;stroke-dasharray:none;stroke-opacity:1"
         d="m 349.6,70.471 h 21.27" />
      <text
         id="text6769"
         style="font-variant:normal;font-weight:normal;font-size:9.96000004px;font-family:Calibri;-inkscape-font-specification:Calibri;writing-mode:lr-tb;fill:#595959;fill-opacity:1;fill-rule:nonzero;stroke:none"
         transform="scale(1,-1)"
         x="373.14999"
         y="-67.559998">
        <tspan
           id="tspan6767"
           sodipodi:role="line"
           y="-67.559998"
           x="373.14999 377.54236 379.79333 384.71356 387.10397 392.15369 394.67355">γ = 0,5</tspan>
      </text>
      <path
         inkscape:connector-curvature="0"
         id="path6771"
         style="fill:none;stroke:#ffc000;stroke-width:2.49180007;stroke-linecap:round;stroke-linejoin:round;stroke-miterlimit:10;stroke-dasharray:none;stroke-opacity:1"
         d="m 411.79,70.471 h 21.26" />
      <text
         id="text6783"
         style="font-variant:normal;font-weight:normal;font-size:9.96000004px;font-family:Calibri;-inkscape-font-specification:Calibri;writing-mode:lr-tb;fill:#595959;fill-opacity:1;fill-rule:nonzero;stroke:none"
         transform="scale(1,-1)"
         x="435.35999"
         y="-67.559998">
        <tspan
           id="tspan6781"
           sodipodi:role="line"
           y="-67.559998"
           x="435.35999 439.73245 441.9834 446.90363 449.27411">γ = 1</tspan>
      </text>
      <path
         inkscape:connector-curvature="0"
         id="path6785"
         style="fill:none;stroke:#5b9bd5;stroke-width:2.49180007;stroke-linecap:round;stroke-linejoin:round;stroke-miterlimit:10;stroke-dasharray:none;stroke-opacity:1"
         d="M 466.43,70.471 H 487.7" />
      <text
         id="text6797"
         style="font-variant:normal;font-weight:normal;font-size:9.96000004px;font-family:Calibri;-inkscape-font-specification:Calibri;writing-mode:lr-tb;fill:#595959;fill-opacity:1;fill-rule:nonzero;stroke:none"
         transform="scale(1,-1)"
         x="490.01001"
         y="-67.559998">
        <tspan
           id="tspan6795"
           sodipodi:role="line"
           y="-67.559998"
           x="490.01001 494.40237 496.65332 501.57355 503.96396">γ = 2</tspan>
      </text>
      <path
         inkscape:connector-curvature="0"
         id="path6799"
         style="fill:none;stroke:#70ad47;stroke-width:2.49180007;stroke-linecap:round;stroke-linejoin:round;stroke-miterlimit:10;stroke-dasharray:none;stroke-opacity:1"
         d="m 521.08,70.471 h 21.26" />
      <text
         id="text6811"
         style="font-variant:normal;font-weight:normal;font-size:9.96000004px;font-family:Calibri;-inkscape-font-specification:Calibri;writing-mode:lr-tb;fill:#595959;fill-opacity:1;fill-rule:nonzero;stroke:none"
         transform="scale(1,-1)"
         x="544.65997"
         y="-67.559998">
        <tspan
           id="tspan6809"
           sodipodi:role="line"
           y="-67.559998"
           x="544.65997 549.05237 551.30334 556.22357 558.61395">γ = 4</tspan>
      </text>
      <path
         inkscape:connector-curvature="0"
         id="path6813"
         style="fill:none;stroke:#264478;stroke-width:2.49180007;stroke-linecap:round;stroke-linejoin:round;stroke-miterlimit:10;stroke-dasharray:none;stroke-opacity:1"
         d="m 575.73,70.471 h 21.26" />
      <text
         id="text6825"
         style="font-variant:normal;font-weight:normal;font-size:9.96000004px;font-family:Calibri;-inkscape-font-specification:Calibri;writing-mode:lr-tb;fill:#595959;fill-opacity:1;fill-rule:nonzero;stroke:none"
         transform="scale(1,-1)"
         x="599.33002"
         y="-67.559998">
        <tspan
           id="tspan6823"
           sodipodi:role="line"
           y="-67.559998"
           x="599.33002 603.70245 605.95343 610.8537 613.22418 618.27393 620.76392 625.81366">γ = 7,99</tspan>
      </text>
      <text
         y="-89.632416"
         x="664.61322"
         transform="scale(1,-1)"
         style="font-variant:normal;font-weight:normal;font-size:9.98400021px;font-family:Calibri;-inkscape-font-specification:Calibri;writing-mode:lr-tb;fill:#595959;fill-opacity:1;fill-rule:nonzero;stroke:none"
         id="text7359">
        <tspan
           x="664.61322 669.6532"
           y="-89.632416"
           sodipodi:role="line"
           id="tspan7357">255</tspan>
      </text>
    </g>
  </g>
</svg>
