<?xml version="1.0" encoding="UTF-8" standalone="no"?>
<svg xmlns="http://www.w3.org/2000/svg" width="380" height="150">
<title>SVG tvary generované programovacím rámcom Programovací rámec GRobot 2.16 (2022-11-05), © 2010 – 2022, Roman Horváth</title>
<style>
svg { background: #ffff80; }
</style>

<g stroke-linecap="round" stroke-linejoin="round">
  <line fill="none" stroke="#fa0000" stroke-opacity="0.250980" stroke-width="10.0px" x1="13.223304703363112" x2="25.008417723138905" y1="55.0" y2="43.21488698022421" />
  <line fill="none" stroke="#fa0000" stroke-opacity="0.250980" stroke-width="10.0px" x1="36.7935307429147" x2="48.57864376269049" y1="31.429773960448415" y2="19.644660940672622" />
  <line fill="none" stroke="#fa0000" stroke-opacity="0.250980" stroke-width="10.0px" x1="48.57864376269049" x2="60.36375678246628" y1="19.644660940672622" y2="31.429773960448415" />
  <line fill="none" stroke="#fa0000" stroke-opacity="0.250980" stroke-width="10.0px" x1="72.14886980224207" x2="83.93398282201787" y1="43.21488698022421" y2="55.00000000000001" />
  <line fill="none" stroke="#fa0000" stroke-opacity="0.250980" stroke-width="10.0px" x1="83.93398282201787" x2="95.71909584179366" y1="55.00000000000001" y2="43.214886980224215" />
  <line fill="none" stroke="#fa0000" stroke-opacity="0.250980" stroke-width="10.0px" x1="107.50420886156945" x2="119.28932188134524" y1="31.429773960448422" y2="19.64466094067263" />
  <line fill="none" stroke="#fa0000" stroke-opacity="0.250980" stroke-width="10.0px" x1="119.28932188134524" x2="131.07443490112104" y1="19.64466094067263" y2="31.42977396044843" />
  <line fill="none" stroke="#fa0000" stroke-opacity="0.250980" stroke-width="10.0px" x1="142.85954792089683" x2="154.64466094067262" y1="43.21488698022422" y2="55.00000000000002" />
  <line fill="none" stroke="#fa0000" stroke-opacity="0.250980" stroke-width="10.0px" x1="154.64466094067262" x2="166.42977396044841" y1="55.00000000000002" y2="43.21488698022423" />
  <line fill="none" stroke="#fa0000" stroke-opacity="0.250980" stroke-width="10.0px" x1="178.2148869802242" x2="190.0" y1="31.429773960448436" y2="19.644660940672644" />
  <line fill="none" stroke="#fa0000" stroke-opacity="0.250980" stroke-width="10.0px" x1="190.0" x2="201.7851130197758" y1="19.644660940672644" y2="31.429773960448443" />
  <line fill="none" stroke="#fa0000" stroke-opacity="0.250980" stroke-width="10.0px" x1="213.57022603955159" x2="225.35533905932738" y1="43.214886980224236" y2="55.000000000000036" />
  <line fill="none" stroke="#fa0000" stroke-opacity="0.250980" stroke-width="10.0px" x1="225.35533905932738" x2="237.14045207910317" y1="55.000000000000036" y2="43.21488698022424" />
  <line fill="none" stroke="#fa0000" stroke-opacity="0.250980" stroke-width="10.0px" x1="248.92556509887896" x2="260.71067811865476" y1="31.42977396044845" y2="19.644660940672658" />
  <line fill="none" stroke="#fa0000" stroke-opacity="0.250980" stroke-width="10.0px" x1="260.71067811865476" x2="272.49579113843055" y1="19.644660940672658" y2="31.429773960448458" />
  <line fill="none" stroke="#fa0000" stroke-opacity="0.250980" stroke-width="10.0px" x1="284.28090415820634" x2="296.06601717798213" y1="43.21488698022425" y2="55.00000000000005" />
  <line fill="none" stroke="#fa0000" stroke-opacity="0.250980" stroke-width="10.0px" x1="296.06601717798213" x2="307.8511301977579" y1="55.00000000000005" y2="43.21488698022426" />
  <line fill="none" stroke="#fa0000" stroke-opacity="0.250980" stroke-width="10.0px" x1="319.6362432175337" x2="331.4213562373095" y1="31.429773960448465" y2="19.644660940672672" />
  <line fill="none" stroke="#fa0000" stroke-opacity="0.250980" stroke-width="10.0px" x1="331.4213562373095" x2="343.2064692570853" y1="19.644660940672672" y2="31.429773960448472" />
  <line fill="none" stroke="#fa0000" stroke-opacity="0.250980" stroke-width="10.0px" x1="354.9915822768611" x2="366.7766952966369" y1="43.214886980224264" y2="55.000000000000064" />
  <path d="M 13.223304703363112, 125.0
    L 25.008417723138905, 113.21488698022421
    M 36.7935307429147, 101.42977396044841
    L 48.57864376269049, 89.64466094067262
    L 60.36375678246628, 101.42977396044841
    M 72.14886980224207, 113.21488698022421
    L 83.93398282201787, 125.00000000000001
    L 95.71909584179366, 113.21488698022422
    M 107.50420886156945, 101.42977396044843
    L 119.28932188134524, 89.64466094067264
    L 131.07443490112104, 101.42977396044843
    M 142.85954792089683, 113.21488698022424
    L 154.64466094067262, 125.00000000000003
    L 166.42977396044841, 113.21488698022424
    M 178.2148869802242, 101.42977396044844
    L 190.0, 89.64466094067265
    L 201.7851130197758, 101.42977396044844
    M 213.57022603955159, 113.21488698022424
    L 225.35533905932738, 125.00000000000004
    L 237.14045207910317, 113.21488698022425
    M 248.92556509887896, 101.42977396044846
    L 260.71067811865476, 89.64466094067267
    L 272.49579113843055, 101.42977396044846
    M 284.28090415820634, 113.21488698022426
    L 296.06601717798213, 125.00000000000006
    L 307.8511301977579, 113.21488698022426
    M 319.6362432175337, 101.42977396044847
    L 331.4213562373095, 89.64466094067268
    L 343.2064692570853, 101.42977396044847
    M 354.9915822768611, 113.21488698022426
    L 366.7766952966369, 125.00000000000007" fill="none" stroke="#fa0000" stroke-opacity="0.250980" stroke-width="10.0px" />
</g>
</svg>
