<?xml version="1.0" encoding="UTF-8" standalone="no"?>
<svg xmlns="http://www.w3.org/2000/svg" width="86.895142" height="71.362434" version="1.1" viewBox="0 0 86.895144 71.362432">

  <g fill="black">
    <path d="m 12.518905,64.27582 -5.4322935,0 0,-57.1892063 5.4322935,0 0,4.1981813 -3.6145643,0 0,48.792845 3.6145643,0 0,4.19818 z" />

    <g style="font-family:'Times New Roman';font-size:15px">

      <g style="font-style:italic">
      <text x="15.714847" y="22.017521">
        <tspan y="22.017521" x="15.714847">a</tspan>
      </text>
      <text x="38.964844" y="22.017521">
        <tspan y="22.017521" x="38.964844">c</tspan>
      </text>
      <text x="62.839844" y="22.017521">
        <tspan y="22.017521" x="62.839844">e</tspan>
      </text>
      <text x="15.964847" y="40.517521">
        <tspan y="40.517521" x="15.964847">b</tspan>
      </text>
      <text x="37.839844" y="40.517521">
        <tspan y="40.517521" x="37.839844">d</tspan>
      </text>
      <text x="63.964844" y="40.517521">
        <tspan y="40.517521" x="63.964844">f</tspan>
      </text>
      </g>

      <text x="15.964847" y="59.017521">
        <tspan y="59.017521" x="15.964847">0</tspan>
      </text>
      <text x="38.589844" y="59.017521">
        <tspan y="59.017521" x="38.589844">0</tspan>
      </text>
      <text x="62.589844" y="59.017521">
        <tspan y="59.017521" x="62.589844">1</tspan>
      </text>
    </g>

    <path d="m 79.808529,64.27582 -5.432292,0 0,-4.19818 3.614561,0 0,-48.792845 -3.614561,0 0,-4.1981813 5.432292,0 0,57.1892063 z" />
  </g>
</svg>
