<?xml version="1.0" encoding="UTF-8" standalone="no"?>
<svg xmlns="http://www.w3.org/2000/svg" width="400" height="400">
<title>Kreslenie mnohouholníkov</title>
<defs>
</defs>
<g stroke-linecap="round" stroke-linejoin="round">
  <polygon fill="none" points="200.00000000000003, 10.0  295.0, 35.45517328095664  364.5448267190434, 105.0  390.0, 200.0  364.54482671904333, 295.0  295.0, 364.54482671904333  199.99999999999994, 389.99999999999994  104.99999999999997, 364.5448267190433  35.45517328095664, 294.99999999999994  9.999999999999972, 199.99999999999994  35.455173280956615, 104.99999999999993  104.99999999999996, 35.455173280956615  199.99999999999994, 9.999999999999972" stroke="black" stroke-width="0.5px" />
  <polygon fill="none" points="200.00000000000003, 10.0  302.72175531656353, 40.161828762075686  372.8300791173584, 121.07114752964173  388.06607395737706, 227.03981927192433  343.5924191273088, 324.4235394496043  253.52918579987136, 382.3036649867546  146.47081420012807, 382.30366498675454  56.40758087269063, 324.42353944960416  11.933926042622545, 227.03981927192416  27.169920882641293, 121.07114752964158  97.27824468343624, 40.16182876207557  199.99999999999977, 10.0" stroke="black" stroke-width="0.5px" />
  <polygon fill="none" points="200.00000000000003, 10.0  311.6791979355699, 46.286771068760004  380.70073809607914, 141.28677106876  380.70073809607914, 258.71322893124  311.67919793556985, 353.71322893124  199.99999999999994, 390.0  88.32080206443007, 353.71322893124  19.299261903920808, 258.71322893124  19.299261903920808, 141.28677106876  88.32080206443008, 46.286771068760004  199.99999999999994, 10.000000000000028" stroke="black" stroke-width="0.5px" />
  <polygon fill="none" points="200.00000000000003, 10.0  322.12964584044244, 54.45155580739427  387.11347307231955, 167.00684624328332  364.5448267190434, 295.0000000000001  264.98382723187706, 378.54159794932264  135.01617276812294, 378.54159794932264  35.45517328095667, 295.0  12.886526927680478, 167.00684624328326  77.87035415955755, 54.451555807394215  200.00000000000003, 10.000000000000057" stroke="black" stroke-width="0.5px" />
  <polygon fill="none" points="200.00000000000003, 10.0  334.350288425444, 65.64971157455605  390.0, 200.00000000000006  334.350288425444, 334.35028842544403  199.99999999999991, 390.0  65.64971157455591, 334.350288425444  9.999999999999943, 200.0  65.64971157455591, 65.649711574556  199.99999999999991, 10.000000000000028" stroke="black" stroke-width="0.5px" />
  <polygon fill="none" points="200.00000000000003, 10.0  348.5479816689257, 81.53693764684066  385.2363033145465, 242.27897745169975  282.437910432336, 371.18408490145964  117.56208956766392, 371.18408490145947  14.76369668545368, 242.27897745169943  51.452018331074726, 81.53693764684039  200.00000000000048, 9.999999999999943" stroke="black" stroke-width="0.5px" />
  <polygon fill="none" points="200.00000000000003, 10.0  364.5448267190433, 105.00000000000007  364.5448267190433, 295.00000000000006  199.99999999999997, 390.00000000000006  35.45517328095664, 295.0000000000001  35.45517328095664, 105.00000000000011  199.99999999999997, 10.000000000000142" stroke="black" stroke-width="0.5px" />
  <polygon fill="none" points="200.00000000000003, 10.0  380.7007380960792, 141.28677106876006  311.67919793556985, 353.7132289312401  88.32080206443007, 353.71322893124005  19.299261903920808, 141.28677106876  200.0, 10.0" stroke="black" stroke-width="0.5px" />
  <polygon fill="none" points="200.00000000000003, 10.0  389.99999999999994, 200.0  199.99999999999994, 389.99999999999994  10.0, 199.99999999999997  199.99999999999997, 10.000000000000028" stroke="black" stroke-width="0.5px" />
  <polygon fill="none" points="200.00000000000003, 10.0  364.5448267190434, 294.99999999999994  35.45517328095673, 294.9999999999999  200.00000000000009, 9.999999999999943" stroke="black" stroke-width="0.5px" />
</g>
</svg>
