<?xml version="1.0" encoding="UTF-8" standalone="no"?>
<svg xmlns="http://www.w3.org/2000/svg" width="400" height="400">
<title>Kreslenie mnohouholníkov</title>
<defs>
</defs>
<g stroke-linecap="round" stroke-linejoin="round">
  <polygon fill="none" points="200.00000000000003, 6.814834742186321  296.5925826289068, 32.69673925243839  367.3032607475616, 103.40741737109316  393.1851652578136, 200.0  367.3032607475615, 296.5925826289068  296.59258262890677, 367.3032607475616  199.99999999999991, 393.18516525781365  103.40741737109309, 367.3032607475615  32.69673925243836, 296.59258262890677  6.814834742186292, 199.99999999999994  32.69673925243836, 103.40741737109312  103.40741737109312, 32.69673925243836  199.99999999999994, 6.814834742186292" stroke="black" stroke-width="0.5px" />
  <polygon fill="none" points="200.00000000000003, 22.526723355788818  295.94929736144974, 50.69997903993189  361.43537075597817, 126.27493647535776  375.6668545833066, 225.25708066345106  334.1253532831179, 316.22028019890286  249.99999999999972, 370.28436194446255  149.99999999999972, 370.2843619444625  65.87464671688161, 316.22028019890274  24.333145416693014, 225.25708066345086  38.564629244021546, 126.27493647535759  104.05070263855005, 50.69997903993175  199.99999999999977, 22.52672335578879" stroke="black" stroke-width="0.5px" />
  <polygon fill="none" points="200.00000000000003, 38.19660112501049  295.10565162951536, 69.09830056250524  353.88417685876266, 150.0  353.88417685876266, 250.0  295.1056516295153, 330.9016994374947  199.99999999999994, 361.8033988749895  104.89434837048461, 330.90169943749476  46.115823141237314, 250.0  46.115823141237314, 150.0  104.89434837048464, 69.09830056250527  200.0, 38.196601125010545" stroke="black" stroke-width="0.5px" />
  <polygon fill="none" points="200.00000000000003, 53.80977999184563  293.9692620785909, 88.01179432441258  343.9692620785909, 174.61433470285644  326.60444431189785, 273.09511000407724  250.00000000000003, 337.3738709727312  150.00000000000003, 337.3738709727312  73.39555568810223, 273.09511000407724  56.03073792140921, 174.6143347028564  106.03073792140923, 88.01179432441256  200.00000000000006, 53.80977999184569" stroke="black" stroke-width="0.5px" />
  <polygon fill="none" points="200.00000000000003, 69.34370351236234  292.3879532511287, 107.61204674887138  330.6562964876377, 200.00000000000006  292.3879532511287, 292.3879532511287  200.0, 330.65629648763763  107.61204674887131, 292.3879532511287  69.34370351236234, 200.0  107.61204674887132, 107.61204674887131  200.0, 69.34370351236234" stroke="black" stroke-width="0.5px" />
  <polygon fill="none" points="200.00000000000003, 84.76175645187567  290.0968867902419, 128.1501303636315  312.34898018587336, 225.64292158181388  249.99999999999997, 303.8260698286168  149.99999999999997, 303.8260698286167  87.65101981412673, 225.64292158181365  109.9031132097583, 128.15013036363132  200.00000000000028, 84.76175645187564" stroke="black" stroke-width="0.5px" />
  <polygon fill="none" points="200.00000000000003, 99.99999999999999  286.60254037844385, 150.00000000000003  286.60254037844385, 250.00000000000003  199.99999999999997, 300.00000000000006  113.3974596215561, 250.00000000000006  113.3974596215561, 150.00000000000006  199.99999999999997, 100.00000000000006" stroke="black" stroke-width="0.5px" />
  <polygon fill="none" points="200.00000000000003, 114.93491916479601  280.90169943749476, 173.71344439404334  250.0, 268.8190960235587  150.0, 268.8190960235587  119.09830056250524, 173.71344439404334  200.0, 114.93491916479601" stroke="black" stroke-width="0.5px" />
  <polygon fill="none" points="200.0, 129.28932188134524  270.71067811865476, 200.0  200.0, 270.71067811865476  129.28932188134524, 200.0  200.0, 129.28932188134524" stroke="black" stroke-width="0.5px" />
  <polygon fill="none" points="200.0, 142.26497308103743  250.00000000000003, 228.86751345948127  150.00000000000003, 228.86751345948127  200.00000000000003, 142.2649730810374" stroke="black" stroke-width="0.5px" />
</g>
</svg>
