<?xml version="1.0" encoding="UTF-8" standalone="no"?>
<!-- Created with Inkscape (http://www.inkscape.org/) -->

<svg
   xmlns:dc="http://purl.org/dc/elements/1.1/"
   xmlns:cc="http://creativecommons.org/ns#"
   xmlns:rdf="http://www.w3.org/1999/02/22-rdf-syntax-ns#"
   xmlns:svg="http://www.w3.org/2000/svg"
   xmlns="http://www.w3.org/2000/svg"
   xmlns:sodipodi="http://sodipodi.sourceforge.net/DTD/sodipodi-0.dtd"
   xmlns:inkscape="http://www.inkscape.org/namespaces/inkscape"
   width="546.4552"
   height="505.30832"
   viewBox="0 0 546.45521 505.30833"
   id="svg2"
   version="1.1"
   inkscape:version="0.92.3 (2405546, 2018-03-11)"
   sodipodi:docname="Panak.svg">
  <defs
     id="defs4" />
  <sodipodi:namedview
     id="base"
     pagecolor="#ffffff"
     bordercolor="#666666"
     borderopacity="1.0"
     inkscape:pageopacity="0.0"
     inkscape:pageshadow="2"
     inkscape:zoom="1.0065223"
     inkscape:cx="259.13749"
     inkscape:cy="217.20387"
     inkscape:document-units="px"
     inkscape:current-layer="layer1"
     showgrid="false"
     units="px"
     inkscape:window-width="1920"
     inkscape:window-height="1058"
     inkscape:window-x="-8"
     inkscape:window-y="-8"
     inkscape:window-maximized="1"
     fit-margin-top="0"
     fit-margin-left="0"
     fit-margin-right="0"
     fit-margin-bottom="0" />
  <metadata
     id="metadata7">
    <rdf:RDF>
      <cc:Work
         rdf:about="">
        <dc:format>image/svg+xml</dc:format>
        <dc:type
           rdf:resource="http://purl.org/dc/dcmitype/StillImage" />
        <dc:title></dc:title>
      </cc:Work>
    </rdf:RDF>
  </metadata>
  <g
     inkscape:label="Vrstva 1"
     inkscape:groupmode="layer"
     id="layer1"
     transform="translate(-26.7724,-473.27999)">
    <ellipse
       ry="33.606895"
       rx="78.730972"
       style="fill:#1a1a1a;fill-opacity:1;stroke:#000000;stroke-width:6.01148272;stroke-linecap:round;stroke-linejoin:round;stroke-miterlimit:4;stroke-dasharray:none"
       id="ellipse3340"
       cx="717.15002"
       cy="817.53088"
       transform="matrix(0.97559371,0.21958349,-0.30390095,0.95270363,0,0)" />
    <ellipse
       cy="950.80286"
       cx="-142.91371"
       id="circle3338"
       style="fill:#1a1a1a;fill-opacity:1;stroke:#000000;stroke-width:6.01148272;stroke-linecap:round;stroke-linejoin:round;stroke-miterlimit:4;stroke-dasharray:none"
       rx="83.009613"
       ry="35.500671"
       transform="matrix(0.97559371,-0.21958349,0.30390095,0.95270363,0,0)" />
    <ellipse
       style="fill:#e3dbdb;fill-opacity:1;stroke:#000000;stroke-width:6.00000095;stroke-linecap:round;stroke-linejoin:round;stroke-miterlimit:4;stroke-dasharray:none"
       id="circle3358"
       cx="447.44525"
       cy="587.81482"
       rx="122.78233"
       ry="111.53483" />
    <ellipse
       cy="588.91711"
       cx="152.5549"
       id="circle3356"
       style="fill:#e3dbdb;fill-opacity:1;stroke:#000000;stroke-width:6.00000048;stroke-linecap:round;stroke-linejoin:round;stroke-miterlimit:4;stroke-dasharray:none"
       rx="122.7825"
       ry="111.535" />
    <ellipse
       style="fill:#e9afaf;fill-opacity:1;stroke:#000000;stroke-width:6.00000048;stroke-linecap:round;stroke-linejoin:round;stroke-miterlimit:4;stroke-dasharray:none"
       id="circle825"
       cx="152.5549"
       cy="588.91711"
       rx="78.513557"
       ry="71.32132" />
    <ellipse
       cy="587.81482"
       cx="447.44525"
       id="circle827"
       style="fill:#e9afaf;fill-opacity:1;stroke:#000000;stroke-width:6.00000048;stroke-linecap:round;stroke-linejoin:round;stroke-miterlimit:4;stroke-dasharray:none"
       rx="78.513557"
       ry="71.32132" />
    <ellipse
       style="fill:#cccccc;fill-opacity:1;stroke:#000000;stroke-width:6;stroke-linecap:round;stroke-linejoin:round;stroke-miterlimit:4;stroke-dasharray:none"
       id="path3336"
       cx="300"
       cy="747.41443"
       rx="191.95337"
       ry="209.99509" />
    <ellipse
       ry="42.532078"
       rx="52.590057"
       style="fill:#ffffff;fill-opacity:1;stroke:#000000;stroke-width:6.00404215;stroke-linecap:round;stroke-linejoin:round;stroke-miterlimit:4;stroke-dasharray:none"
       id="ellipse3342"
       cx="-555.41656"
       cy="-517.4668"
       transform="matrix(-0.87852046,-0.47770472,0.52263132,-0.8525588,0,0)" />
    <ellipse
       transform="matrix(0.87852046,-0.47770472,-0.52263132,-0.8525588,0,0)"
       cy="-808.74243"
       cx="-35.577602"
       id="ellipse3344"
       style="fill:#ffffff;fill-opacity:1;stroke:#000000;stroke-width:6.00404215;stroke-linecap:round;stroke-linejoin:round;stroke-miterlimit:4;stroke-dasharray:none"
       rx="52.590057"
       ry="42.532078" />
    <path
       style="fill:#2b0000;fill-opacity:1;stroke:#aa0000;stroke-width:6;stroke-linecap:round;stroke-linejoin:round;stroke-miterlimit:4;stroke-dasharray:none"
       d="M 391.14227,796.16883 A 108.04822,85.252519 0 0 1 300,835.81398 108.04822,85.252519 0 0 1 208.87944,796.34771 92.612759,73.073586 0 0 0 207.38771,809.02168 92.612759,73.073586 0 0 0 300,882.09489 a 92.612759,73.073586 0 0 0 92.61229,-73.07321 92.612759,73.073586 0 0 0 -1.47002,-12.85285 z"
       id="circle3346"
       inkscape:connector-curvature="0" />
    <ellipse
       cy="706.49597"
       cx="217.50046"
       id="circle3352"
       style="fill:#ffffff;fill-opacity:1;stroke:#000000;stroke-width:18;stroke-linecap:round;stroke-linejoin:round;stroke-miterlimit:4;stroke-dasharray:none"
       rx="11.148358"
       ry="10.499756" />
    <ellipse
       style="fill:#ffffff;fill-opacity:1;stroke:#000000;stroke-width:18;stroke-linecap:round;stroke-linejoin:round;stroke-miterlimit:4;stroke-dasharray:none"
       id="circle3354"
       cx="391.41843"
       cy="706.49597"
       rx="11.148358"
       ry="10.499756" />
    <ellipse
       ry="89.40863"
       rx="47.766476"
       cy="730.93573"
       cx="252.75691"
       id="ellipse829"
       style="fill:#cccccc;fill-opacity:1;stroke:#000000;stroke-width:6.06755924;stroke-linecap:round;stroke-linejoin:round;stroke-miterlimit:4;stroke-dasharray:none"
       transform="matrix(0.92249697,0.38600432,-0.18439248,0.98285269,0,0)" />
    <ellipse
       transform="matrix(-0.92249697,0.38600432,0.18439248,0.98285269,0,0)"
       style="fill:#cccccc;fill-opacity:1;stroke:#000000;stroke-width:6.06755924;stroke-linecap:round;stroke-linejoin:round;stroke-miterlimit:4;stroke-dasharray:none"
       id="ellipse831"
       cx="-350.30969"
       cy="967.78308"
       rx="47.766476"
       ry="89.40863" />
    <path
       inkscape:connector-curvature="0"
       id="path839"
       d="m 162.12142,650.58431 a 70.377064,34.98018 8.6031141 0 1 61.13077,-7.20347 70.377064,34.98018 8.6031141 0 1 56.26109,24.88961 60.323197,29.983011 8.6031141 0 0 1.7386,-4.99643 60.323197,29.983011 8.6031141 0 0 -55.15904,-38.66915 60.323197,29.983011 8.6031141 0 0 -64.12926,20.62185 60.323197,29.983011 8.6031141 0 0 0.15784,5.35759 z"
       style="fill:#000000;fill-opacity:1;stroke:none;stroke-width:6;stroke-linecap:round;stroke-linejoin:round;stroke-miterlimit:4;stroke-dasharray:none" />
    <path
       style="fill:#000000;fill-opacity:1;stroke:none;stroke-width:6;stroke-linecap:round;stroke-linejoin:round;stroke-miterlimit:4;stroke-dasharray:none"
       d="m 330.14967,669.8814 a 34.98018,70.377064 79.816332 0 1 55.5541,-26.50669 34.98018,70.377064 79.816332 0 1 61.27932,5.44485 29.983011,60.323197 79.816332 0 0 0.0369,-5.29015 29.983011,60.323197 79.816332 0 0 -64.67366,-18.84517 29.983011,60.323197 79.816332 0 0 -54.07147,40.17585 29.983011,60.323197 79.816332 0 0 1.87482,5.02131 z"
       id="path841"
       inkscape:connector-curvature="0" />
  </g>
</svg>
