<?xml version="1.0" encoding="UTF-8" standalone="no"?>
<svg xmlns="http://www.w3.org/2000/svg" width="20" height="20">
<title>SVG tvary generované knižnicou GRobot 1.75, © 2010 – 2016, Roman Horváth</title>
<g stroke-linecap="round" stroke-linejoin="round">
  <path fill="black" d="m 20,16 -10,4 -10,-4 5,-4 5,-12 5,12 z" />
  <path fill="black" d="M 20,16 16,19.25 10,20 4,19.25 0,16 2,8 5,12 10,0 15,12 18,8 Z" />
  <path fill="black" d="m 20,16 c -0.259167,0.863892 -1.333333,1.083333 -2,1.625 -0.666667,0.541667 -1.133377,1.278351 -2,1.625 -0.866623,0.346649 -2,0.25 -3,0.375 C 12,19.75 11.007782,20 10,20 8.9922178,20 8,19.75 7,19.625 6,19.5 4.8666228,19.596649 4,19.25 3.1333772,18.903351 2.6666667,18.166667 2,17.625 1.3333333,17.083333 0.25916749,16.863892 0,16 -0.25916749,15.136108 0.46875,14.125 0.6875,13.25 0.90625,12.375 1.09375,11.625 1.3125,10.75 1.53125,9.875 1.7708333,8.9166667 2,8 2.5,8.6666667 3,9.3333333 3.5,10 4,10.666667 4.0993646,12.327504 5,12 5.9006354,11.672496 5.8333333,10 6.25,9 6.6666667,8 6.8333333,7 7.25,6 7.6666667,5 8.3333333,4 8.75,3 9.1666667,2 9.5833333,1 10,0 c 0.416667,1 0.833333,2 1.25,3 0.416667,1 1.083333,2 1.5,3 0.416667,1 0.583333,2 1,3 0.416667,1 0.349365,2.672496 1.25,3 0.900635,0.327504 1,-1.333333 1.5,-2 0.5,-0.6666667 1,-1.3333333 1.5,-2 0.229167,0.9166667 0.46875,1.875 0.6875,2.75 0.21875,0.875 0.40625,1.625 0.625,2.5 0.21875,0.875 0.946667,1.886108 0.6875,2.75 z" />

</g>
</svg>
