<?xml version="1.0" encoding="UTF-8" standalone="no"?>
<svg xmlns="http://www.w3.org/2000/svg" width="300" height="200">
<title>SVG tvary generované programovacím rámcom Programovací rámec GRobot 2.00 (2020-07-1), © 2010 – 2020, Roman Horváth</title>
<g stroke-linecap="round" stroke-linejoin="round">
  <circle cx="70.0" cy="90.0" fill="none" r="50.0" stroke="#0000b0" stroke-width="0.5px" />
  <circle cx="240.0" cy="110.0" fill="none" r="40.0" stroke="#0000b0" stroke-width="0.5px" />
  <line stroke="#00b000" stroke-width="0.5px" x1="70.0" x2="119.65753021614381" y1="90.0" y2="95.84206237836986" />
  <line stroke="#b00000" stroke-width="0.5px" x1="119.65753021614381" x2="200.27397582708494" y1="95.84206237836986" y2="105.32635009730413" />
  <line stroke="#00b0b0" stroke-width="0.5px" x1="200.27397582708494" x2="240.0" y1="105.32635009730413" y2="110.00000000000001" />
  <line stroke="#dc9600" stroke-width="0.5px" x1="70.0" x2="77.07106781186548" y1="90.0" y2="82.92893218813452" />
  <line stroke="#dc9600" stroke-width="0.5px" x1="70.0" x2="62.928932188134524" y1="90.0" y2="82.92893218813452" />
  <line stroke="#dc9600" stroke-width="0.5px" x1="70.0" x2="62.928932188134524" y1="90.0" y2="97.07106781186548" />
  <line stroke="#dc9600" stroke-width="0.5px" x1="70.0" x2="77.07106781186548" y1="90.0" y2="97.07106781186548" />
  <text fill="#dc9600" font-family="Cambria" font-size="12.0px" x="44.5" y="116.0" >S1[x1, y1]</text>
  <line stroke="#8c4000" stroke-width="0.5px" x1="240.0" x2="247.07106781186548" y1="110.0" y2="102.92893218813452" />
  <line stroke="#8c4000" stroke-width="0.5px" x1="240.0" x2="232.92893218813452" y1="110.0" y2="102.92893218813452" />
  <line stroke="#8c4000" stroke-width="0.5px" x1="240.0" x2="232.92893218813452" y1="110.0" y2="117.07106781186548" />
  <line stroke="#8c4000" stroke-width="0.5px" x1="240.0" x2="247.07106781186548" y1="110.0" y2="117.07106781186548" />
  <text fill="#8c4000" font-family="Cambria" font-size="12.0px" x="214.5" y="136.0" >S2[x2, y2]</text>
  <text fill="#00b000" font-family="Cambria" font-size="12.0px" x="90.46454257401547" y="83.01692272866467" >r1</text>
  <text fill="#00b0b0" font-family="Cambria" font-size="12.0px" x="215.77276537948603" y="97.75906658813179" >r2</text>
  <text fill="#b00000" font-family="Cambria" font-size="14.0px" transform="rotate(6.709836807756915, 161.60153048755794, 86.68009777731673)" x="126.60153048755794" y="92.68009777731673" >vzdialenosť</text>
</g>
</svg>
