<?xml version="1.0" encoding="UTF-8" standalone="no"?>
<svg xmlns="http://www.w3.org/2000/svg" width="280" height="280">
<title>SVG tvary generované programovacím rámcom Programovací rámec GRobot 2.00 (2020-07-1), © 2010 – 2020, Roman Horváth</title>
<g stroke-linecap="round" stroke-linejoin="round">
  <line stroke="#0000b0" stroke-width="0.5px" x1="108.50712500726681" x2="-12.760687510900226" y1="-44.02850002906632" y2="441.0427500435995" />
  <circle cx="200.0" cy="130.0" fill="none" r="60.0" stroke="#0000b0" stroke-width="0.5px" />
  <line stroke="#dc9600" stroke-width="0.5px" x1="60.0" x2="67.07106781186548" y1="150.0" y2="142.92893218813452" />
  <line stroke="#dc9600" stroke-width="0.5px" x1="60.0" x2="52.928932188134524" y1="150.0" y2="142.92893218813452" />
  <line stroke="#dc9600" stroke-width="0.5px" x1="60.0" x2="52.928932188134524" y1="150.0" y2="157.07106781186548" />
  <line stroke="#dc9600" stroke-width="0.5px" x1="60.0" x2="67.07106781186548" y1="150.0" y2="157.07106781186548" />
  <text fill="#dc9600" font-family="Cambria" font-size="12.0px" x="10.5" y="132.0" >S1[x1, y1]</text>
  <line stroke="#dc9600" stroke-width="0.5px" x1="40.0" x2="47.071067811865476" y1="230.0" y2="222.92893218813452" />
  <line stroke="#dc9600" stroke-width="0.5px" x1="40.0" x2="32.928932188134524" y1="230.0" y2="222.92893218813452" />
  <line stroke="#dc9600" stroke-width="0.5px" x1="40.0" x2="32.928932188134524" y1="230.0" y2="237.07106781186548" />
  <line stroke="#dc9600" stroke-width="0.5px" x1="40.0" x2="47.071067811865476" y1="230.0" y2="237.07106781186548" />
  <text fill="#dc9600" font-family="Cambria" font-size="12.0px" x="38.5" y="256.0" >S2[x2, y2]</text>
  <line stroke="#8c4000" stroke-width="0.5px" x1="200.0" x2="207.07106781186548" y1="130.0" y2="122.92893218813452" />
  <line stroke="#8c4000" stroke-width="0.5px" x1="200.0" x2="192.92893218813452" y1="130.0" y2="122.92893218813452" />
  <line stroke="#8c4000" stroke-width="0.5px" x1="200.0" x2="192.92893218813452" y1="130.0" y2="137.07106781186548" />
  <line stroke="#8c4000" stroke-width="0.5px" x1="200.0" x2="207.07106781186548" y1="130.0" y2="137.07106781186548" />
  <text fill="#8c4000" font-family="Cambria" font-size="12.0px" x="174.5" y="156.0" >S3[x3, y3]</text>
  <line stroke="#8c4000" stroke-width="0.5px" x1="72.94117647058823" x2="80.01224428245371" y1="98.23529411764706" y2="91.16422630578158" />
  <line stroke="#8c4000" stroke-width="0.5px" x1="72.94117647058823" x2="65.87010865872276" y1="98.23529411764706" y2="91.16422630578158" />
  <line stroke="#8c4000" stroke-width="0.5px" x1="72.94117647058823" x2="65.87010865872276" y1="98.23529411764706" y2="105.30636192951253" />
  <line stroke="#8c4000" stroke-width="0.5px" x1="72.94117647058823" x2="80.01224428245371" y1="98.23529411764706" y2="105.30636192951253" />
  <line stroke="#8c4000" stroke-width="0.5px" x1="141.79144999128007" x2="148.86251780314555" y1="115.44786249782001" y2="108.37679468595454" />
  <line stroke="#8c4000" stroke-width="0.5px" x1="141.79144999128007" x2="134.7203821794146" y1="115.44786249782001" y2="108.37679468595454" />
  <line stroke="#8c4000" stroke-width="0.5px" x1="141.79144999128007" x2="134.7203821794146" y1="115.44786249782001" y2="122.51893030968549" />
  <line stroke="#8c4000" stroke-width="0.5px" x1="141.79144999128007" x2="148.86251780314555" y1="115.44786249782001" y2="122.51893030968549" />
  <line stroke="#00b000" stroke-width="0.5px" x1="200.0" x2="141.7914499912801" y1="130.0" y2="115.44786249782001" />
  <text fill="#00b000" font-family="Cambria" font-size="12.0px" x="172.76136624629405" y="109.26136624629403" >r</text>
  <line stroke="#b00000" stroke-width="0.5px" x1="141.79144999128007" x2="72.94117647058823" y1="115.44786249782001" y2="98.23529411764704" />
  <text fill="#b00000" font-family="Cambria" font-size="12.0px" transform="rotate(14.036243467926482, 111.73195448158816, 89.37901330511755)" x="81.73195448158816" y="93.37901330511755" >vzdialenosť</text>
  <line stroke="#b0b0b0" stroke-width="0.5px" x1="60.0" x2="140.60303038033" y1="150.0" y2="138.48528137423858" />
</g>
</svg>
