<?xml version="1.0" encoding="UTF-8" standalone="no"?>
<svg xmlns="http://www.w3.org/2000/svg" width="550" height="170">
<title>SVG tvary generované programovacím rámcom Programovací rámec GRobot 2.14 (2022-05-16), © 2010 – 2022, Roman Horváth</title>
<defs>
</defs>
<g stroke-linecap="round" stroke-linejoin="round">
  <line fill="none" stroke="#909090" stroke-width="0.5px" x1="25.0" x2="25.0" y1="-95.0" y2="265.0" />
  <line fill="none" stroke="#909090" stroke-width="0.5px" x1="31.0" x2="31.0" y1="-95.0" y2="265.0" />
  <line fill="none" stroke="#909090" stroke-width="0.5px" x1="37.0" x2="37.0" y1="-95.0" y2="265.0" />
  <line fill="none" stroke="#909090" stroke-width="0.5px" x1="43.0" x2="43.0" y1="-95.0" y2="265.0" />
  <line fill="none" stroke="#909090" stroke-width="0.5px" x1="49.0" x2="49.0" y1="-95.0" y2="265.0" />
  <line fill="none" stroke="#909090" stroke-width="0.5px" x1="55.0" x2="55.0" y1="-95.0" y2="265.0" />
  <line fill="none" stroke="#909090" stroke-width="0.5px" x1="61.0" x2="61.0" y1="-95.0" y2="265.0" />
  <line fill="none" stroke="#909090" stroke-width="0.5px" x1="67.0" x2="67.0" y1="-95.0" y2="265.0" />
  <line fill="none" stroke="#909090" stroke-width="0.5px" x1="73.0" x2="73.0" y1="-95.0" y2="265.0" />
  <line fill="none" stroke="#909090" stroke-width="0.5px" x1="79.0" x2="79.0" y1="-95.0" y2="265.0" />
  <line fill="none" stroke="#909090" stroke-width="0.5px" x1="85.0" x2="85.0" y1="-95.0" y2="265.0" />
  <line fill="none" stroke="#909090" stroke-width="0.5px" x1="91.0" x2="91.0" y1="-95.0" y2="265.0" />
  <line fill="none" stroke="#909090" stroke-width="0.5px" x1="97.0" x2="97.0" y1="-95.0" y2="265.0" />
  <line fill="none" stroke="#909090" stroke-width="0.5px" x1="103.0" x2="103.0" y1="-95.0" y2="265.0" />
  <line fill="none" stroke="#909090" stroke-width="0.5px" x1="109.0" x2="109.0" y1="-95.0" y2="265.0" />
  <line fill="none" stroke="#909090" stroke-width="0.5px" x1="115.0" x2="115.0" y1="-95.0" y2="265.0" />
  <line fill="none" stroke="#909090" stroke-width="0.5px" x1="121.0" x2="121.0" y1="-95.0" y2="265.0" />
  <line fill="none" stroke="#909090" stroke-width="0.5px" x1="127.0" x2="127.0" y1="-95.0" y2="265.0" />
  <line fill="none" stroke="#909090" stroke-width="0.5px" x1="133.0" x2="133.0" y1="-95.0" y2="265.0" />
  <line fill="none" stroke="#909090" stroke-width="0.5px" x1="139.0" x2="139.0" y1="-95.0" y2="265.0" />
  <line fill="none" stroke="#909090" stroke-width="0.5px" x1="145.0" x2="145.0" y1="-95.0" y2="265.0" />
  <line fill="none" stroke="#909090" stroke-width="0.5px" x1="151.0" x2="151.0" y1="-95.0" y2="265.0" />
  <line fill="none" stroke="#909090" stroke-width="0.5px" x1="157.0" x2="157.0" y1="-95.0" y2="265.0" />
  <line fill="none" stroke="#909090" stroke-width="0.5px" x1="163.0" x2="163.0" y1="-95.0" y2="265.0" />
  <line fill="none" stroke="#909090" stroke-width="0.5px" x1="169.0" x2="169.0" y1="-95.0" y2="265.0" />
  <line fill="none" stroke="#909090" stroke-width="0.5px" x1="175.0" x2="175.0" y1="-95.0" y2="265.0" />
  <line fill="none" stroke="#909090" stroke-width="0.5px" x1="181.0" x2="181.0" y1="-95.0" y2="265.0" />
  <line fill="none" stroke="#909090" stroke-width="0.5px" x1="187.0" x2="187.0" y1="-95.0" y2="265.0" />
  <line fill="none" stroke="#909090" stroke-width="0.5px" x1="193.0" x2="193.0" y1="-95.0" y2="265.0" />
  <line fill="none" stroke="#909090" stroke-width="0.5px" x1="199.0" x2="199.0" y1="-95.0" y2="265.0" />
  <line fill="none" stroke="#909090" stroke-width="0.5px" x1="205.0" x2="205.0" y1="-95.0" y2="265.0" />
  <line fill="none" stroke="#909090" stroke-width="0.5px" x1="211.0" x2="211.0" y1="-95.0" y2="265.0" />
  <line fill="none" stroke="#909090" stroke-width="0.5px" x1="217.0" x2="217.0" y1="-95.0" y2="265.0" />
  <line fill="none" stroke="#909090" stroke-width="0.5px" x1="223.0" x2="223.0" y1="-95.0" y2="265.0" />
  <line fill="none" stroke="#909090" stroke-width="0.5px" x1="229.0" x2="229.0" y1="-95.0" y2="265.0" />
  <line fill="none" stroke="#909090" stroke-width="0.5px" x1="235.0" x2="235.0" y1="-95.0" y2="265.0" />
  <line fill="none" stroke="#909090" stroke-width="0.5px" x1="241.0" x2="241.0" y1="-95.0" y2="265.0" />
  <line fill="none" stroke="#909090" stroke-width="0.5px" x1="247.0" x2="247.0" y1="-95.0" y2="265.0" />
  <line fill="none" stroke="#909090" stroke-width="0.5px" x1="253.0" x2="253.0" y1="-95.0" y2="265.0" />
  <line fill="none" stroke="#909090" stroke-width="0.5px" x1="259.0" x2="259.0" y1="-95.0" y2="265.0" />
  <line fill="none" stroke="#909090" stroke-width="0.5px" x1="265.0" x2="265.0" y1="-95.0" y2="265.0" />
  <line fill="none" stroke="#909090" stroke-width="0.5px" x1="271.0" x2="271.0" y1="-95.0" y2="265.0" />
  <line fill="none" stroke="#909090" stroke-width="0.5px" x1="277.0" x2="277.0" y1="-95.0" y2="265.0" />
  <line fill="none" stroke="#909090" stroke-width="0.5px" x1="283.0" x2="283.0" y1="-95.0" y2="265.0" />
  <line fill="none" stroke="#909090" stroke-width="0.5px" x1="289.0" x2="289.0" y1="-95.0" y2="265.0" />
  <line fill="none" stroke="#909090" stroke-width="0.5px" x1="295.0" x2="295.0" y1="-95.0" y2="265.0" />
  <line fill="none" stroke="#909090" stroke-width="0.5px" x1="301.0" x2="301.0" y1="-95.0" y2="265.0" />
  <line fill="none" stroke="#909090" stroke-width="0.5px" x1="307.0" x2="307.0" y1="-95.0" y2="265.0" />
  <line fill="none" stroke="#909090" stroke-width="0.5px" x1="313.0" x2="313.0" y1="-95.0" y2="265.0" />
  <line fill="none" stroke="#909090" stroke-width="0.5px" x1="319.0" x2="319.0" y1="-95.0" y2="265.0" />
  <line fill="none" stroke="#909090" stroke-width="0.5px" x1="325.0" x2="325.0" y1="-95.0" y2="265.0" />
  <line fill="none" stroke="#909090" stroke-width="0.5px" x1="331.0" x2="331.0" y1="-95.0" y2="265.0" />
  <line fill="none" stroke="#909090" stroke-width="0.5px" x1="337.0" x2="337.0" y1="-95.0" y2="265.0" />
  <line fill="none" stroke="#909090" stroke-width="0.5px" x1="343.0" x2="343.0" y1="-95.0" y2="265.0" />
  <line fill="none" stroke="#909090" stroke-width="0.5px" x1="349.0" x2="349.0" y1="-95.0" y2="265.0" />
  <line fill="none" stroke="#909090" stroke-width="0.5px" x1="355.0" x2="355.0" y1="-95.0" y2="265.0" />
  <line fill="none" stroke="#909090" stroke-width="0.5px" x1="361.0" x2="361.0" y1="-95.0" y2="265.0" />
  <line fill="none" stroke="#909090" stroke-width="0.5px" x1="367.0" x2="367.0" y1="-95.0" y2="265.0" />
  <line fill="none" stroke="#909090" stroke-width="0.5px" x1="373.0" x2="373.0" y1="-95.0" y2="265.0" />
  <line fill="none" stroke="#909090" stroke-width="0.5px" x1="379.0" x2="379.0" y1="-95.0" y2="265.0" />
  <line fill="none" stroke="#909090" stroke-width="0.5px" x1="385.0" x2="385.0" y1="-95.0" y2="265.0" />
  <line fill="none" stroke="#909090" stroke-width="0.5px" x1="391.0" x2="391.0" y1="-95.0" y2="265.0" />
  <line fill="none" stroke="#909090" stroke-width="0.5px" x1="397.0" x2="397.0" y1="-95.0" y2="265.0" />
  <line fill="none" stroke="#909090" stroke-width="0.5px" x1="403.0" x2="403.0" y1="-95.0" y2="265.0" />
  <line fill="none" stroke="#909090" stroke-width="0.5px" x1="409.0" x2="409.0" y1="-95.0" y2="265.0" />
  <line fill="none" stroke="#909090" stroke-width="0.5px" x1="415.0" x2="415.0" y1="-95.0" y2="265.0" />
  <line fill="none" stroke="#909090" stroke-width="0.5px" x1="421.0" x2="421.0" y1="-95.0" y2="265.0" />
  <line fill="none" stroke="#909090" stroke-width="0.5px" x1="427.0" x2="427.0" y1="-95.0" y2="265.0" />
  <line fill="none" stroke="#909090" stroke-width="0.5px" x1="433.0" x2="433.0" y1="-95.0" y2="265.0" />
  <line fill="none" stroke="#909090" stroke-width="0.5px" x1="439.0" x2="439.0" y1="-95.0" y2="265.0" />
  <line fill="none" stroke="#909090" stroke-width="0.5px" x1="445.0" x2="445.0" y1="-95.0" y2="265.0" />
  <line fill="none" stroke="#909090" stroke-width="0.5px" x1="451.0" x2="451.0" y1="-95.0" y2="265.0" />
  <line fill="none" stroke="#909090" stroke-width="0.5px" x1="457.0" x2="457.0" y1="-95.0" y2="265.0" />
  <line fill="none" stroke="#909090" stroke-width="0.5px" x1="463.0" x2="463.0" y1="-95.0" y2="265.0" />
  <line fill="none" stroke="#909090" stroke-width="0.5px" x1="469.0" x2="469.0" y1="-95.0" y2="265.0" />
  <line fill="none" stroke="#909090" stroke-width="0.5px" x1="475.0" x2="475.0" y1="-95.0" y2="265.0" />
  <line fill="none" stroke="#909090" stroke-width="0.5px" x1="481.0" x2="481.0" y1="-95.0" y2="265.0" />
  <line fill="none" stroke="#909090" stroke-width="0.5px" x1="487.0" x2="487.0" y1="-95.0" y2="265.0" />
  <line fill="none" stroke="#909090" stroke-width="0.5px" x1="493.0" x2="493.0" y1="-95.0" y2="265.0" />
  <line fill="none" stroke="#909090" stroke-width="0.5px" x1="499.0" x2="499.0" y1="-95.0" y2="265.0" />
  <line fill="none" stroke="#909090" stroke-width="0.5px" x1="505.0" x2="505.0" y1="-95.0" y2="265.0" />
  <line fill="none" stroke="#909090" stroke-width="0.5px" x1="511.0" x2="511.0" y1="-95.0" y2="265.0" />
  <line fill="none" stroke="#909090" stroke-width="0.5px" x1="517.0" x2="517.0" y1="-95.0" y2="265.0" />
  <line fill="none" stroke="#909090" stroke-width="0.5px" x1="523.0" x2="523.0" y1="-95.0" y2="265.0" />
  <line fill="none" stroke="#f0f000" stroke-linecap="butt" stroke-width="5.0px" x1="25.0" x2="525.0" y1="135.0" y2="135.0" />
  <line fill="none" stroke="#f0f000" stroke-linecap="butt" stroke-width="5.0px" x1="25.0" x2="525.0" y1="115.0" y2="115.0" />
  <line fill="none" stroke="#f0f000" stroke-linecap="butt" stroke-width="5.0px" x1="25.0" x2="525.0" y1="95.0" y2="95.0" />
  <line fill="none" stroke="#f0f000" stroke-linecap="butt" stroke-width="5.0px" x1="25.0" x2="525.0" y1="75.0" y2="75.0" />
  <line fill="none" stroke="#f0f000" stroke-linecap="butt" stroke-width="5.0px" x1="25.0" x2="525.0" y1="55.0" y2="55.0" />
  <line fill="none" stroke="#f0f000" stroke-linecap="butt" stroke-width="5.0px" x1="25.0" x2="525.0" y1="35.0" y2="35.0" />
  <line fill="none" stroke="black" stroke-dasharray="6.0" stroke-linecap="butt" stroke-width="5.0px" x1="25.0" x2="525.0" y1="35.0" y2="35.0" />
  <line fill="none" stroke="black" stroke-dasharray="6.0 12.0" stroke-linecap="butt" stroke-width="5.0px" x1="25.0" x2="525.0" y1="55.0" y2="55.0" />
  <line fill="none" stroke="black" stroke-dasharray="6.0 12.0 18.0" stroke-linecap="butt" stroke-width="5.0px" x1="25.0" x2="525.0" y1="75.0" y2="75.0" />
  <line fill="none" stroke="black" stroke-dasharray="6.0 12.0 18.0 24.0" stroke-linecap="butt" stroke-width="5.0px" x1="25.0" x2="525.0" y1="95.0" y2="95.0" />
  <line fill="none" stroke="black" stroke-dasharray="6.0 12.0 18.0 24.0 30.0" stroke-linecap="butt" stroke-width="5.0px" x1="25.0" x2="525.0" y1="115.0" y2="115.0" />
  <line fill="none" stroke="black" stroke-dasharray="6.0 12.0 18.0 24.0 30.0 36.0" stroke-linecap="butt" stroke-width="5.0px" x1="25.0" x2="525.0" y1="135.0" y2="135.0" />
</g>
</svg>
