<?xml version="1.0" encoding="UTF-8" standalone="no"?>
<svg xmlns="http://www.w3.org/2000/svg" width="420" height="420">
<title>SVG tvary generované programovacím rámcom Programovací rámec GRobot 2.14 (2022-05-16), © 2010 – 2022, Roman Horváth</title>
<defs>
</defs>
<g stroke-linecap="round" stroke-linejoin="round">
  <line fill="none" stroke="#909090" stroke-width="0.5px" x1="8.0" x2="8.0" y1="420.0" y2="0.0" />
  <line fill="none" stroke="#909090" stroke-width="0.5px" x1="23.0" x2="23.0" y1="420.0" y2="0.0" />
  <line fill="none" stroke="#909090" stroke-width="0.5px" x1="38.0" x2="38.0" y1="420.0" y2="0.0" />
  <line fill="none" stroke="#909090" stroke-width="0.5px" x1="53.0" x2="53.0" y1="420.0" y2="0.0" />
  <line fill="none" stroke="#909090" stroke-width="0.5px" x1="68.0" x2="68.0" y1="420.0" y2="0.0" />
  <line fill="none" stroke="#909090" stroke-width="0.5px" x1="83.0" x2="83.0" y1="420.0" y2="0.0" />
  <line fill="none" stroke="#909090" stroke-width="0.5px" x1="98.0" x2="98.0" y1="420.0" y2="0.0" />
  <line fill="none" stroke="#909090" stroke-width="0.5px" x1="113.0" x2="113.0" y1="420.0" y2="0.0" />
  <line fill="none" stroke="#909090" stroke-width="0.5px" x1="128.0" x2="128.0" y1="420.0" y2="0.0" />
  <line fill="none" stroke="#909090" stroke-width="0.5px" x1="143.0" x2="143.0" y1="420.0" y2="0.0" />
  <line fill="none" stroke="#909090" stroke-width="0.5px" x1="158.0" x2="158.0" y1="420.0" y2="0.0" />
  <line fill="none" stroke="#909090" stroke-width="0.5px" x1="173.0" x2="173.0" y1="420.0" y2="0.0" />
  <line fill="none" stroke="#909090" stroke-width="0.5px" x1="188.0" x2="188.0" y1="420.0" y2="0.0" />
  <line fill="none" stroke="#909090" stroke-width="0.5px" x1="203.0" x2="203.0" y1="420.0" y2="0.0" />
  <line fill="none" stroke="#909090" stroke-width="0.5px" x1="218.0" x2="218.0" y1="420.0" y2="0.0" />
  <line fill="none" stroke="#909090" stroke-width="0.5px" x1="233.0" x2="233.0" y1="420.0" y2="0.0" />
  <line fill="none" stroke="#909090" stroke-width="0.5px" x1="248.0" x2="248.0" y1="420.0" y2="0.0" />
  <line fill="none" stroke="#909090" stroke-width="0.5px" x1="263.0" x2="263.0" y1="420.0" y2="0.0" />
  <line fill="none" stroke="#909090" stroke-width="0.5px" x1="278.0" x2="278.0" y1="420.0" y2="0.0" />
  <line fill="none" stroke="#909090" stroke-width="0.5px" x1="293.0" x2="293.0" y1="420.0" y2="0.0" />
  <line fill="none" stroke="#909090" stroke-width="0.5px" x1="308.0" x2="308.0" y1="420.0" y2="0.0" />
  <line fill="none" stroke="#909090" stroke-width="0.5px" x1="323.0" x2="323.0" y1="420.0" y2="0.0" />
  <line fill="none" stroke="#909090" stroke-width="0.5px" x1="338.0" x2="338.0" y1="420.0" y2="0.0" />
  <line fill="none" stroke="#909090" stroke-width="0.5px" x1="353.0" x2="353.0" y1="420.0" y2="0.0" />
  <line fill="none" stroke="#909090" stroke-width="0.5px" x1="368.0" x2="368.0" y1="420.0" y2="0.0" />
  <line fill="none" stroke="#909090" stroke-width="0.5px" x1="383.0" x2="383.0" y1="420.0" y2="0.0" />
  <line fill="none" stroke="#909090" stroke-width="0.5px" x1="398.0" x2="398.0" y1="420.0" y2="0.0" />
  <line fill="none" stroke="#909090" stroke-width="0.5px" x1="413.0" x2="413.0" y1="420.0" y2="0.0" />
  <line fill="none" stroke="black" stroke-dasharray="15.0 15.0" stroke-linecap="butt" stroke-width="5.0px" x1="8.0" x2="412.0" y1="8.0" y2="8.0" />
  <line fill="none" stroke="black" stroke-dasharray="15.0 15.0" stroke-dashoffset="1.0" stroke-linecap="butt" stroke-width="5.0px" x1="8.0" x2="412.0" y1="21.0" y2="21.0" />
  <line fill="none" stroke="black" stroke-dasharray="15.0 15.0" stroke-dashoffset="2.0" stroke-linecap="butt" stroke-width="5.0px" x1="8.0" x2="412.0" y1="34.0" y2="34.0" />
  <line fill="none" stroke="black" stroke-dasharray="15.0 15.0" stroke-dashoffset="3.0" stroke-linecap="butt" stroke-width="5.0px" x1="8.0" x2="412.0" y1="47.0" y2="47.0" />
  <line fill="none" stroke="black" stroke-dasharray="15.0 15.0" stroke-dashoffset="4.0" stroke-linecap="butt" stroke-width="5.0px" x1="8.0" x2="412.0" y1="60.0" y2="60.0" />
  <line fill="none" stroke="black" stroke-dasharray="15.0 15.0" stroke-dashoffset="5.0" stroke-linecap="butt" stroke-width="5.0px" x1="8.0" x2="412.0" y1="73.0" y2="73.0" />
  <line fill="none" stroke="black" stroke-dasharray="15.0 15.0" stroke-dashoffset="6.0" stroke-linecap="butt" stroke-width="5.0px" x1="8.0" x2="412.0" y1="86.0" y2="86.0" />
  <line fill="none" stroke="black" stroke-dasharray="15.0 15.0" stroke-dashoffset="7.0" stroke-linecap="butt" stroke-width="5.0px" x1="8.0" x2="412.0" y1="99.0" y2="99.0" />
  <line fill="none" stroke="black" stroke-dasharray="15.0 15.0" stroke-dashoffset="8.0" stroke-linecap="butt" stroke-width="5.0px" x1="8.0" x2="412.0" y1="112.0" y2="112.0" />
  <line fill="none" stroke="black" stroke-dasharray="15.0 15.0" stroke-dashoffset="9.0" stroke-linecap="butt" stroke-width="5.0px" x1="8.0" x2="412.0" y1="125.0" y2="125.0" />
  <line fill="none" stroke="black" stroke-dasharray="15.0 15.0" stroke-dashoffset="10.0" stroke-linecap="butt" stroke-width="5.0px" x1="8.0" x2="412.0" y1="138.0" y2="138.0" />
  <line fill="none" stroke="black" stroke-dasharray="15.0 15.0" stroke-dashoffset="11.0" stroke-linecap="butt" stroke-width="5.0px" x1="8.0" x2="412.0" y1="151.0" y2="151.0" />
  <line fill="none" stroke="black" stroke-dasharray="15.0 15.0" stroke-dashoffset="12.0" stroke-linecap="butt" stroke-width="5.0px" x1="8.0" x2="412.0" y1="164.0" y2="164.0" />
  <line fill="none" stroke="black" stroke-dasharray="15.0 15.0" stroke-dashoffset="13.0" stroke-linecap="butt" stroke-width="5.0px" x1="8.0" x2="412.0" y1="177.0" y2="177.0" />
  <line fill="none" stroke="black" stroke-dasharray="15.0 15.0" stroke-dashoffset="14.0" stroke-linecap="butt" stroke-width="5.0px" x1="8.0" x2="412.0" y1="190.0" y2="190.0" />
  <line fill="none" stroke="black" stroke-dasharray="15.0 15.0" stroke-dashoffset="15.0" stroke-linecap="butt" stroke-width="5.0px" x1="8.0" x2="412.0" y1="203.0" y2="203.0" />
  <line fill="none" stroke="black" stroke-dasharray="15.0 15.0" stroke-dashoffset="16.0" stroke-linecap="butt" stroke-width="5.0px" x1="8.0" x2="412.0" y1="216.0" y2="216.0" />
  <line fill="none" stroke="black" stroke-dasharray="15.0 15.0" stroke-dashoffset="17.0" stroke-linecap="butt" stroke-width="5.0px" x1="8.0" x2="412.0" y1="229.0" y2="229.0" />
  <line fill="none" stroke="black" stroke-dasharray="15.0 15.0" stroke-dashoffset="18.0" stroke-linecap="butt" stroke-width="5.0px" x1="8.0" x2="412.0" y1="242.0" y2="242.0" />
  <line fill="none" stroke="black" stroke-dasharray="15.0 15.0" stroke-dashoffset="19.0" stroke-linecap="butt" stroke-width="5.0px" x1="8.0" x2="412.0" y1="255.0" y2="255.0" />
  <line fill="none" stroke="black" stroke-dasharray="15.0 15.0" stroke-dashoffset="20.0" stroke-linecap="butt" stroke-width="5.0px" x1="8.0" x2="412.0" y1="268.0" y2="268.0" />
  <line fill="none" stroke="black" stroke-dasharray="15.0 15.0" stroke-dashoffset="21.0" stroke-linecap="butt" stroke-width="5.0px" x1="8.0" x2="412.0" y1="281.0" y2="281.0" />
  <line fill="none" stroke="black" stroke-dasharray="15.0 15.0" stroke-dashoffset="22.0" stroke-linecap="butt" stroke-width="5.0px" x1="8.0" x2="412.0" y1="294.0" y2="294.0" />
  <line fill="none" stroke="black" stroke-dasharray="15.0 15.0" stroke-dashoffset="23.0" stroke-linecap="butt" stroke-width="5.0px" x1="8.0" x2="412.0" y1="307.0" y2="307.0" />
  <line fill="none" stroke="black" stroke-dasharray="15.0 15.0" stroke-dashoffset="24.0" stroke-linecap="butt" stroke-width="5.0px" x1="8.0" x2="412.0" y1="320.0" y2="320.0" />
  <line fill="none" stroke="black" stroke-dasharray="15.0 15.0" stroke-dashoffset="25.0" stroke-linecap="butt" stroke-width="5.0px" x1="8.0" x2="412.0" y1="333.0" y2="333.0" />
  <line fill="none" stroke="black" stroke-dasharray="15.0 15.0" stroke-dashoffset="26.0" stroke-linecap="butt" stroke-width="5.0px" x1="8.0" x2="412.0" y1="346.0" y2="346.0" />
  <line fill="none" stroke="black" stroke-dasharray="15.0 15.0" stroke-dashoffset="27.0" stroke-linecap="butt" stroke-width="5.0px" x1="8.0" x2="412.0" y1="359.0" y2="359.0" />
  <line fill="none" stroke="black" stroke-dasharray="15.0 15.0" stroke-dashoffset="28.0" stroke-linecap="butt" stroke-width="5.0px" x1="8.0" x2="412.0" y1="372.0" y2="372.0" />
  <line fill="none" stroke="black" stroke-dasharray="15.0 15.0" stroke-dashoffset="29.0" stroke-linecap="butt" stroke-width="5.0px" x1="8.0" x2="412.0" y1="385.0" y2="385.0" />
  <line fill="none" stroke="black" stroke-dasharray="15.0 15.0" stroke-dashoffset="30.0" stroke-linecap="butt" stroke-width="5.0px" x1="8.0" x2="412.0" y1="398.0" y2="398.0" />
  <line fill="none" stroke="black" stroke-dasharray="15.0 15.0" stroke-dashoffset="31.0" stroke-linecap="butt" stroke-width="5.0px" x1="8.0" x2="412.0" y1="411.0" y2="411.0" />
</g>
</svg>
