<?xml version="1.0" encoding="UTF-8" standalone="no"?>
<svg xmlns="http://www.w3.org/2000/svg" width="250" height="250">
<title>SVG tvary generované programovacím rámcom Programovací rámec GRobot 2.14 (2022-05-16), © 2010 – 2022, Roman Horváth</title>
<defs>
</defs>
<g stroke-linecap="round" stroke-linejoin="round">
  <line fill="none" stroke="#909090" stroke-width="0.5px" x1="-75.0" x2="325.0" y1="225.0" y2="225.0" />
  <line fill="none" stroke="#909090" stroke-width="0.5px" x1="-75.0" x2="325.0" y1="200.0" y2="200.0" />
  <line fill="none" stroke="#909090" stroke-width="0.5px" x1="-75.0" x2="325.0" y1="175.0" y2="175.0" />
  <line fill="none" stroke="#909090" stroke-width="0.5px" x1="-75.0" x2="325.0" y1="150.0" y2="150.0" />
  <line fill="none" stroke="#909090" stroke-width="0.5px" x1="-75.0" x2="325.0" y1="125.0" y2="125.0" />
  <line fill="none" stroke="#909090" stroke-width="0.5px" x1="-75.0" x2="325.0" y1="100.0" y2="100.0" />
  <line fill="none" stroke="#909090" stroke-width="0.5px" x1="-75.0" x2="325.0" y1="75.0" y2="75.0" />
  <line fill="none" stroke="#909090" stroke-width="0.5px" x1="-75.0" x2="325.0" y1="50.0" y2="50.0" />
  <line fill="none" stroke="#909090" stroke-width="0.5px" x1="-75.0" x2="325.0" y1="25.0" y2="25.0" />
  <line fill="none" stroke="black" stroke-dasharray="11.0" stroke-linecap="butt" stroke-width="1.0px" x1="220.0" x2="220.0" y1="225.0" y2="200.0" />
  <line fill="none" stroke="black" stroke-dasharray="11.0 22.0" stroke-linecap="butt" stroke-width="1.0px" x1="230.0" x2="230.0" y1="225.0" y2="200.0" />
  <line fill="none" stroke="black" stroke-dasharray="10.0" stroke-linecap="butt" stroke-width="1.0px" x1="200.0" x2="200.0" y1="225.0" y2="200.0" />
  <line fill="none" stroke="black" stroke-dasharray="10.0 20.0" stroke-linecap="butt" stroke-width="1.0px" x1="210.0" x2="210.0" y1="225.0" y2="200.0" />
  <line fill="none" stroke="black" stroke-dasharray="9.0" stroke-linecap="butt" stroke-width="1.0px" x1="180.0" x2="180.0" y1="225.0" y2="200.0" />
  <line fill="none" stroke="black" stroke-dasharray="9.0 18.0" stroke-linecap="butt" stroke-width="1.0px" x1="190.0" x2="190.0" y1="225.0" y2="200.0" />
  <line fill="none" stroke="black" stroke-dasharray="8.0" stroke-linecap="butt" stroke-width="1.0px" x1="160.0" x2="160.0" y1="225.0" y2="200.0" />
  <line fill="none" stroke="black" stroke-dasharray="8.0 16.0" stroke-linecap="butt" stroke-width="1.0px" x1="170.0" x2="170.0" y1="225.0" y2="200.0" />
  <line fill="none" stroke="black" stroke-dasharray="7.0" stroke-linecap="butt" stroke-width="1.0px" x1="140.0" x2="140.0" y1="225.0" y2="200.0" />
  <line fill="none" stroke="black" stroke-dasharray="7.0 14.0" stroke-linecap="butt" stroke-width="1.0px" x1="150.0" x2="150.0" y1="225.0" y2="200.0" />
  <line fill="none" stroke="black" stroke-dasharray="6.0" stroke-linecap="butt" stroke-width="1.0px" x1="120.0" x2="120.0" y1="225.0" y2="200.0" />
  <line fill="none" stroke="black" stroke-dasharray="6.0 12.0" stroke-linecap="butt" stroke-width="1.0px" x1="130.0" x2="130.0" y1="225.0" y2="200.0" />
  <line fill="none" stroke="black" stroke-dasharray="5.0" stroke-linecap="butt" stroke-width="1.0px" x1="100.0" x2="100.0" y1="225.0" y2="200.0" />
  <line fill="none" stroke="black" stroke-dasharray="5.0 10.0" stroke-linecap="butt" stroke-width="1.0px" x1="110.0" x2="110.0" y1="225.0" y2="200.0" />
  <line fill="none" stroke="black" stroke-dasharray="4.0" stroke-linecap="butt" stroke-width="1.0px" x1="80.0" x2="80.0" y1="225.0" y2="200.0" />
  <line fill="none" stroke="black" stroke-dasharray="4.0 8.0" stroke-linecap="butt" stroke-width="1.0px" x1="90.0" x2="90.0" y1="225.0" y2="200.0" />
  <line fill="none" stroke="black" stroke-dasharray="3.0" stroke-linecap="butt" stroke-width="1.0px" x1="60.0" x2="60.0" y1="225.0" y2="200.0" />
  <line fill="none" stroke="black" stroke-dasharray="3.0 6.0" stroke-linecap="butt" stroke-width="1.0px" x1="70.0" x2="70.0" y1="225.0" y2="200.0" />
  <line fill="none" stroke="black" stroke-dasharray="2.0" stroke-linecap="butt" stroke-width="1.0px" x1="40.0" x2="40.0" y1="225.0" y2="200.0" />
  <line fill="none" stroke="black" stroke-dasharray="2.0 4.0" stroke-linecap="butt" stroke-width="1.0px" x1="50.0" x2="50.0" y1="225.0" y2="200.0" />
  <line fill="none" stroke="black" stroke-dasharray="1.0" stroke-linecap="butt" stroke-width="1.0px" x1="20.0" x2="20.0" y1="225.0" y2="200.0" />
  <line fill="none" stroke="black" stroke-dasharray="1.0 2.0" stroke-linecap="butt" stroke-width="1.0px" x1="30.0" x2="30.0" y1="225.0" y2="200.0" />
  <line fill="none" stroke="black" stroke-dasharray="11.0" stroke-linecap="butt" stroke-width="2.0px" x1="220.0" x2="220.0" y1="200.0" y2="175.0" />
  <line fill="none" stroke="black" stroke-dasharray="11.0 22.0" stroke-linecap="butt" stroke-width="2.0px" x1="230.0" x2="230.0" y1="200.0" y2="175.0" />
  <line fill="none" stroke="black" stroke-dasharray="10.0" stroke-linecap="butt" stroke-width="2.0px" x1="200.0" x2="200.0" y1="200.0" y2="175.0" />
  <line fill="none" stroke="black" stroke-dasharray="10.0 20.0" stroke-linecap="butt" stroke-width="2.0px" x1="210.0" x2="210.0" y1="200.0" y2="175.0" />
  <line fill="none" stroke="black" stroke-dasharray="9.0" stroke-linecap="butt" stroke-width="2.0px" x1="180.0" x2="180.0" y1="200.0" y2="175.0" />
  <line fill="none" stroke="black" stroke-dasharray="9.0 18.0" stroke-linecap="butt" stroke-width="2.0px" x1="190.0" x2="190.0" y1="200.0" y2="175.0" />
  <line fill="none" stroke="black" stroke-dasharray="8.0" stroke-linecap="butt" stroke-width="2.0px" x1="160.0" x2="160.0" y1="200.0" y2="175.0" />
  <line fill="none" stroke="black" stroke-dasharray="8.0 16.0" stroke-linecap="butt" stroke-width="2.0px" x1="170.0" x2="170.0" y1="200.0" y2="175.0" />
  <line fill="none" stroke="black" stroke-dasharray="7.0" stroke-linecap="butt" stroke-width="2.0px" x1="140.0" x2="140.0" y1="200.0" y2="175.0" />
  <line fill="none" stroke="black" stroke-dasharray="7.0 14.0" stroke-linecap="butt" stroke-width="2.0px" x1="150.0" x2="150.0" y1="200.0" y2="175.0" />
  <line fill="none" stroke="black" stroke-dasharray="6.0" stroke-linecap="butt" stroke-width="2.0px" x1="120.0" x2="120.0" y1="200.0" y2="175.0" />
  <line fill="none" stroke="black" stroke-dasharray="6.0 12.0" stroke-linecap="butt" stroke-width="2.0px" x1="130.0" x2="130.0" y1="200.0" y2="175.0" />
  <line fill="none" stroke="black" stroke-dasharray="5.0" stroke-linecap="butt" stroke-width="2.0px" x1="100.0" x2="100.0" y1="200.0" y2="175.0" />
  <line fill="none" stroke="black" stroke-dasharray="5.0 10.0" stroke-linecap="butt" stroke-width="2.0px" x1="110.0" x2="110.0" y1="200.0" y2="175.0" />
  <line fill="none" stroke="black" stroke-dasharray="4.0" stroke-linecap="butt" stroke-width="2.0px" x1="80.0" x2="80.0" y1="200.0" y2="175.0" />
  <line fill="none" stroke="black" stroke-dasharray="4.0 8.0" stroke-linecap="butt" stroke-width="2.0px" x1="90.0" x2="90.0" y1="200.0" y2="175.0" />
  <line fill="none" stroke="black" stroke-dasharray="3.0" stroke-linecap="butt" stroke-width="2.0px" x1="60.0" x2="60.0" y1="200.0" y2="175.0" />
  <line fill="none" stroke="black" stroke-dasharray="3.0 6.0" stroke-linecap="butt" stroke-width="2.0px" x1="70.0" x2="70.0" y1="200.0" y2="175.0" />
  <line fill="none" stroke="black" stroke-dasharray="2.0" stroke-linecap="butt" stroke-width="2.0px" x1="40.0" x2="40.0" y1="200.0" y2="175.0" />
  <line fill="none" stroke="black" stroke-dasharray="2.0 4.0" stroke-linecap="butt" stroke-width="2.0px" x1="50.0" x2="50.0" y1="200.0" y2="175.0" />
  <line fill="none" stroke="black" stroke-dasharray="1.0" stroke-linecap="butt" stroke-width="2.0px" x1="20.0" x2="20.0" y1="200.0" y2="175.0" />
  <line fill="none" stroke="black" stroke-dasharray="1.0 2.0" stroke-linecap="butt" stroke-width="2.0px" x1="30.0" x2="30.0" y1="200.0" y2="175.0" />
  <line fill="none" stroke="black" stroke-dasharray="11.0" stroke-linecap="butt" stroke-width="3.0px" x1="220.0" x2="220.0" y1="175.0" y2="150.0" />
  <line fill="none" stroke="black" stroke-dasharray="11.0 22.0" stroke-linecap="butt" stroke-width="3.0px" x1="230.0" x2="230.0" y1="175.0" y2="150.0" />
  <line fill="none" stroke="black" stroke-dasharray="10.0" stroke-linecap="butt" stroke-width="3.0px" x1="200.0" x2="200.0" y1="175.0" y2="150.0" />
  <line fill="none" stroke="black" stroke-dasharray="10.0 20.0" stroke-linecap="butt" stroke-width="3.0px" x1="210.0" x2="210.0" y1="175.0" y2="150.0" />
  <line fill="none" stroke="black" stroke-dasharray="9.0" stroke-linecap="butt" stroke-width="3.0px" x1="180.0" x2="180.0" y1="175.0" y2="150.0" />
  <line fill="none" stroke="black" stroke-dasharray="9.0 18.0" stroke-linecap="butt" stroke-width="3.0px" x1="190.0" x2="190.0" y1="175.0" y2="150.0" />
  <line fill="none" stroke="black" stroke-dasharray="8.0" stroke-linecap="butt" stroke-width="3.0px" x1="160.0" x2="160.0" y1="175.0" y2="150.0" />
  <line fill="none" stroke="black" stroke-dasharray="8.0 16.0" stroke-linecap="butt" stroke-width="3.0px" x1="170.0" x2="170.0" y1="175.0" y2="150.0" />
  <line fill="none" stroke="black" stroke-dasharray="7.0" stroke-linecap="butt" stroke-width="3.0px" x1="140.0" x2="140.0" y1="175.0" y2="150.0" />
  <line fill="none" stroke="black" stroke-dasharray="7.0 14.0" stroke-linecap="butt" stroke-width="3.0px" x1="150.0" x2="150.0" y1="175.0" y2="150.0" />
  <line fill="none" stroke="black" stroke-dasharray="6.0" stroke-linecap="butt" stroke-width="3.0px" x1="120.0" x2="120.0" y1="175.0" y2="150.0" />
  <line fill="none" stroke="black" stroke-dasharray="6.0 12.0" stroke-linecap="butt" stroke-width="3.0px" x1="130.0" x2="130.0" y1="175.0" y2="150.0" />
  <line fill="none" stroke="black" stroke-dasharray="5.0" stroke-linecap="butt" stroke-width="3.0px" x1="100.0" x2="100.0" y1="175.0" y2="150.0" />
  <line fill="none" stroke="black" stroke-dasharray="5.0 10.0" stroke-linecap="butt" stroke-width="3.0px" x1="110.0" x2="110.0" y1="175.0" y2="150.0" />
  <line fill="none" stroke="black" stroke-dasharray="4.0" stroke-linecap="butt" stroke-width="3.0px" x1="80.0" x2="80.0" y1="175.0" y2="150.0" />
  <line fill="none" stroke="black" stroke-dasharray="4.0 8.0" stroke-linecap="butt" stroke-width="3.0px" x1="90.0" x2="90.0" y1="175.0" y2="150.0" />
  <line fill="none" stroke="black" stroke-dasharray="3.0" stroke-linecap="butt" stroke-width="3.0px" x1="60.0" x2="60.0" y1="175.0" y2="150.0" />
  <line fill="none" stroke="black" stroke-dasharray="3.0 6.0" stroke-linecap="butt" stroke-width="3.0px" x1="70.0" x2="70.0" y1="175.0" y2="150.0" />
  <line fill="none" stroke="black" stroke-dasharray="2.0" stroke-linecap="butt" stroke-width="3.0px" x1="40.0" x2="40.0" y1="175.0" y2="150.0" />
  <line fill="none" stroke="black" stroke-dasharray="2.0 4.0" stroke-linecap="butt" stroke-width="3.0px" x1="50.0" x2="50.0" y1="175.0" y2="150.0" />
  <line fill="none" stroke="black" stroke-dasharray="1.0" stroke-linecap="butt" stroke-width="3.0px" x1="20.0" x2="20.0" y1="175.0" y2="150.0" />
  <line fill="none" stroke="black" stroke-dasharray="1.0 2.0" stroke-linecap="butt" stroke-width="3.0px" x1="30.0" x2="30.0" y1="175.0" y2="150.0" />
  <line fill="none" stroke="black" stroke-dasharray="11.0" stroke-linecap="butt" stroke-width="4.0px" x1="220.0" x2="220.0" y1="150.0" y2="125.0" />
  <line fill="none" stroke="black" stroke-dasharray="11.0 22.0" stroke-linecap="butt" stroke-width="4.0px" x1="230.0" x2="230.0" y1="150.0" y2="125.0" />
  <line fill="none" stroke="black" stroke-dasharray="10.0" stroke-linecap="butt" stroke-width="4.0px" x1="200.0" x2="200.0" y1="150.0" y2="125.0" />
  <line fill="none" stroke="black" stroke-dasharray="10.0 20.0" stroke-linecap="butt" stroke-width="4.0px" x1="210.0" x2="210.0" y1="150.0" y2="125.0" />
  <line fill="none" stroke="black" stroke-dasharray="9.0" stroke-linecap="butt" stroke-width="4.0px" x1="180.0" x2="180.0" y1="150.0" y2="125.0" />
  <line fill="none" stroke="black" stroke-dasharray="9.0 18.0" stroke-linecap="butt" stroke-width="4.0px" x1="190.0" x2="190.0" y1="150.0" y2="125.0" />
  <line fill="none" stroke="black" stroke-dasharray="8.0" stroke-linecap="butt" stroke-width="4.0px" x1="160.0" x2="160.0" y1="150.0" y2="125.0" />
  <line fill="none" stroke="black" stroke-dasharray="8.0 16.0" stroke-linecap="butt" stroke-width="4.0px" x1="170.0" x2="170.0" y1="150.0" y2="125.0" />
  <line fill="none" stroke="black" stroke-dasharray="7.0" stroke-linecap="butt" stroke-width="4.0px" x1="140.0" x2="140.0" y1="150.0" y2="125.0" />
  <line fill="none" stroke="black" stroke-dasharray="7.0 14.0" stroke-linecap="butt" stroke-width="4.0px" x1="150.0" x2="150.0" y1="150.0" y2="125.0" />
  <line fill="none" stroke="black" stroke-dasharray="6.0" stroke-linecap="butt" stroke-width="4.0px" x1="120.0" x2="120.0" y1="150.0" y2="125.0" />
  <line fill="none" stroke="black" stroke-dasharray="6.0 12.0" stroke-linecap="butt" stroke-width="4.0px" x1="130.0" x2="130.0" y1="150.0" y2="125.0" />
  <line fill="none" stroke="black" stroke-dasharray="5.0" stroke-linecap="butt" stroke-width="4.0px" x1="100.0" x2="100.0" y1="150.0" y2="125.0" />
  <line fill="none" stroke="black" stroke-dasharray="5.0 10.0" stroke-linecap="butt" stroke-width="4.0px" x1="110.0" x2="110.0" y1="150.0" y2="125.0" />
  <line fill="none" stroke="black" stroke-dasharray="4.0" stroke-linecap="butt" stroke-width="4.0px" x1="80.0" x2="80.0" y1="150.0" y2="125.0" />
  <line fill="none" stroke="black" stroke-dasharray="4.0 8.0" stroke-linecap="butt" stroke-width="4.0px" x1="90.0" x2="90.0" y1="150.0" y2="125.0" />
  <line fill="none" stroke="black" stroke-dasharray="3.0" stroke-linecap="butt" stroke-width="4.0px" x1="60.0" x2="60.0" y1="150.0" y2="125.0" />
  <line fill="none" stroke="black" stroke-dasharray="3.0 6.0" stroke-linecap="butt" stroke-width="4.0px" x1="70.0" x2="70.0" y1="150.0" y2="125.0" />
  <line fill="none" stroke="black" stroke-dasharray="2.0" stroke-linecap="butt" stroke-width="4.0px" x1="40.0" x2="40.0" y1="150.0" y2="125.0" />
  <line fill="none" stroke="black" stroke-dasharray="2.0 4.0" stroke-linecap="butt" stroke-width="4.0px" x1="50.0" x2="50.0" y1="150.0" y2="125.0" />
  <line fill="none" stroke="black" stroke-dasharray="1.0" stroke-linecap="butt" stroke-width="4.0px" x1="20.0" x2="20.0" y1="150.0" y2="125.0" />
  <line fill="none" stroke="black" stroke-dasharray="1.0 2.0" stroke-linecap="butt" stroke-width="4.0px" x1="30.0" x2="30.0" y1="150.0" y2="125.0" />
  <line fill="none" stroke="black" stroke-dasharray="11.0" stroke-linecap="butt" stroke-width="5.0px" x1="220.0" x2="220.0" y1="125.0" y2="100.0" />
  <line fill="none" stroke="black" stroke-dasharray="11.0 22.0" stroke-linecap="butt" stroke-width="5.0px" x1="230.0" x2="230.0" y1="125.0" y2="100.0" />
  <line fill="none" stroke="black" stroke-dasharray="10.0" stroke-linecap="butt" stroke-width="5.0px" x1="200.0" x2="200.0" y1="125.0" y2="100.0" />
  <line fill="none" stroke="black" stroke-dasharray="10.0 20.0" stroke-linecap="butt" stroke-width="5.0px" x1="210.0" x2="210.0" y1="125.0" y2="100.0" />
  <line fill="none" stroke="black" stroke-dasharray="9.0" stroke-linecap="butt" stroke-width="5.0px" x1="180.0" x2="180.0" y1="125.0" y2="100.0" />
  <line fill="none" stroke="black" stroke-dasharray="9.0 18.0" stroke-linecap="butt" stroke-width="5.0px" x1="190.0" x2="190.0" y1="125.0" y2="100.0" />
  <line fill="none" stroke="black" stroke-dasharray="8.0" stroke-linecap="butt" stroke-width="5.0px" x1="160.0" x2="160.0" y1="125.0" y2="100.0" />
  <line fill="none" stroke="black" stroke-dasharray="8.0 16.0" stroke-linecap="butt" stroke-width="5.0px" x1="170.0" x2="170.0" y1="125.0" y2="100.0" />
  <line fill="none" stroke="black" stroke-dasharray="7.0" stroke-linecap="butt" stroke-width="5.0px" x1="140.0" x2="140.0" y1="125.0" y2="100.0" />
  <line fill="none" stroke="black" stroke-dasharray="7.0 14.0" stroke-linecap="butt" stroke-width="5.0px" x1="150.0" x2="150.0" y1="125.0" y2="100.0" />
  <line fill="none" stroke="black" stroke-dasharray="6.0" stroke-linecap="butt" stroke-width="5.0px" x1="120.0" x2="120.0" y1="125.0" y2="100.0" />
  <line fill="none" stroke="black" stroke-dasharray="6.0 12.0" stroke-linecap="butt" stroke-width="5.0px" x1="130.0" x2="130.0" y1="125.0" y2="100.0" />
  <line fill="none" stroke="black" stroke-dasharray="5.0" stroke-linecap="butt" stroke-width="5.0px" x1="100.0" x2="100.0" y1="125.0" y2="100.0" />
  <line fill="none" stroke="black" stroke-dasharray="5.0 10.0" stroke-linecap="butt" stroke-width="5.0px" x1="110.0" x2="110.0" y1="125.0" y2="100.0" />
  <line fill="none" stroke="black" stroke-dasharray="4.0" stroke-linecap="butt" stroke-width="5.0px" x1="80.0" x2="80.0" y1="125.0" y2="100.0" />
  <line fill="none" stroke="black" stroke-dasharray="4.0 8.0" stroke-linecap="butt" stroke-width="5.0px" x1="90.0" x2="90.0" y1="125.0" y2="100.0" />
  <line fill="none" stroke="black" stroke-dasharray="3.0" stroke-linecap="butt" stroke-width="5.0px" x1="60.0" x2="60.0" y1="125.0" y2="100.0" />
  <line fill="none" stroke="black" stroke-dasharray="3.0 6.0" stroke-linecap="butt" stroke-width="5.0px" x1="70.0" x2="70.0" y1="125.0" y2="100.0" />
  <line fill="none" stroke="black" stroke-dasharray="2.0" stroke-linecap="butt" stroke-width="5.0px" x1="40.0" x2="40.0" y1="125.0" y2="100.0" />
  <line fill="none" stroke="black" stroke-dasharray="2.0 4.0" stroke-linecap="butt" stroke-width="5.0px" x1="50.0" x2="50.0" y1="125.0" y2="100.0" />
  <line fill="none" stroke="black" stroke-dasharray="1.0" stroke-linecap="butt" stroke-width="5.0px" x1="20.0" x2="20.0" y1="125.0" y2="100.0" />
  <line fill="none" stroke="black" stroke-dasharray="1.0 2.0" stroke-linecap="butt" stroke-width="5.0px" x1="30.0" x2="30.0" y1="125.0" y2="100.0" />
  <line fill="none" stroke="black" stroke-dasharray="11.0" stroke-linecap="butt" stroke-width="6.0px" x1="220.0" x2="220.0" y1="100.0" y2="75.0" />
  <line fill="none" stroke="black" stroke-dasharray="11.0 22.0" stroke-linecap="butt" stroke-width="6.0px" x1="230.0" x2="230.0" y1="100.0" y2="75.0" />
  <line fill="none" stroke="black" stroke-dasharray="10.0" stroke-linecap="butt" stroke-width="6.0px" x1="200.0" x2="200.0" y1="100.0" y2="75.0" />
  <line fill="none" stroke="black" stroke-dasharray="10.0 20.0" stroke-linecap="butt" stroke-width="6.0px" x1="210.0" x2="210.0" y1="100.0" y2="75.0" />
  <line fill="none" stroke="black" stroke-dasharray="9.0" stroke-linecap="butt" stroke-width="6.0px" x1="180.0" x2="180.0" y1="100.0" y2="75.0" />
  <line fill="none" stroke="black" stroke-dasharray="9.0 18.0" stroke-linecap="butt" stroke-width="6.0px" x1="190.0" x2="190.0" y1="100.0" y2="75.0" />
  <line fill="none" stroke="black" stroke-dasharray="8.0" stroke-linecap="butt" stroke-width="6.0px" x1="160.0" x2="160.0" y1="100.0" y2="75.0" />
  <line fill="none" stroke="black" stroke-dasharray="8.0 16.0" stroke-linecap="butt" stroke-width="6.0px" x1="170.0" x2="170.0" y1="100.0" y2="75.0" />
  <line fill="none" stroke="black" stroke-dasharray="7.0" stroke-linecap="butt" stroke-width="6.0px" x1="140.0" x2="140.0" y1="100.0" y2="75.0" />
  <line fill="none" stroke="black" stroke-dasharray="7.0 14.0" stroke-linecap="butt" stroke-width="6.0px" x1="150.0" x2="150.0" y1="100.0" y2="75.0" />
  <line fill="none" stroke="black" stroke-dasharray="6.0" stroke-linecap="butt" stroke-width="6.0px" x1="120.0" x2="120.0" y1="100.0" y2="75.0" />
  <line fill="none" stroke="black" stroke-dasharray="6.0 12.0" stroke-linecap="butt" stroke-width="6.0px" x1="130.0" x2="130.0" y1="100.0" y2="75.0" />
  <line fill="none" stroke="black" stroke-dasharray="5.0" stroke-linecap="butt" stroke-width="6.0px" x1="100.0" x2="100.0" y1="100.0" y2="75.0" />
  <line fill="none" stroke="black" stroke-dasharray="5.0 10.0" stroke-linecap="butt" stroke-width="6.0px" x1="110.0" x2="110.0" y1="100.0" y2="75.0" />
  <line fill="none" stroke="black" stroke-dasharray="4.0" stroke-linecap="butt" stroke-width="6.0px" x1="80.0" x2="80.0" y1="100.0" y2="75.0" />
  <line fill="none" stroke="black" stroke-dasharray="4.0 8.0" stroke-linecap="butt" stroke-width="6.0px" x1="90.0" x2="90.0" y1="100.0" y2="75.0" />
  <line fill="none" stroke="black" stroke-dasharray="3.0" stroke-linecap="butt" stroke-width="6.0px" x1="60.0" x2="60.0" y1="100.0" y2="75.0" />
  <line fill="none" stroke="black" stroke-dasharray="3.0 6.0" stroke-linecap="butt" stroke-width="6.0px" x1="70.0" x2="70.0" y1="100.0" y2="75.0" />
  <line fill="none" stroke="black" stroke-dasharray="2.0" stroke-linecap="butt" stroke-width="6.0px" x1="40.0" x2="40.0" y1="100.0" y2="75.0" />
  <line fill="none" stroke="black" stroke-dasharray="2.0 4.0" stroke-linecap="butt" stroke-width="6.0px" x1="50.0" x2="50.0" y1="100.0" y2="75.0" />
  <line fill="none" stroke="black" stroke-dasharray="1.0" stroke-linecap="butt" stroke-width="6.0px" x1="20.0" x2="20.0" y1="100.0" y2="75.0" />
  <line fill="none" stroke="black" stroke-dasharray="1.0 2.0" stroke-linecap="butt" stroke-width="6.0px" x1="30.0" x2="30.0" y1="100.0" y2="75.0" />
  <line fill="none" stroke="black" stroke-dasharray="11.0" stroke-linecap="butt" stroke-width="7.0px" x1="220.0" x2="220.0" y1="75.0" y2="50.0" />
  <line fill="none" stroke="black" stroke-dasharray="11.0 22.0" stroke-linecap="butt" stroke-width="7.0px" x1="230.0" x2="230.0" y1="75.0" y2="50.0" />
  <line fill="none" stroke="black" stroke-dasharray="10.0" stroke-linecap="butt" stroke-width="7.0px" x1="200.0" x2="200.0" y1="75.0" y2="50.0" />
  <line fill="none" stroke="black" stroke-dasharray="10.0 20.0" stroke-linecap="butt" stroke-width="7.0px" x1="210.0" x2="210.0" y1="75.0" y2="50.0" />
  <line fill="none" stroke="black" stroke-dasharray="9.0" stroke-linecap="butt" stroke-width="7.0px" x1="180.0" x2="180.0" y1="75.0" y2="50.0" />
  <line fill="none" stroke="black" stroke-dasharray="9.0 18.0" stroke-linecap="butt" stroke-width="7.0px" x1="190.0" x2="190.0" y1="75.0" y2="50.0" />
  <line fill="none" stroke="black" stroke-dasharray="8.0" stroke-linecap="butt" stroke-width="7.0px" x1="160.0" x2="160.0" y1="75.0" y2="50.0" />
  <line fill="none" stroke="black" stroke-dasharray="8.0 16.0" stroke-linecap="butt" stroke-width="7.0px" x1="170.0" x2="170.0" y1="75.0" y2="50.0" />
  <line fill="none" stroke="black" stroke-dasharray="7.0" stroke-linecap="butt" stroke-width="7.0px" x1="140.0" x2="140.0" y1="75.0" y2="50.0" />
  <line fill="none" stroke="black" stroke-dasharray="7.0 14.0" stroke-linecap="butt" stroke-width="7.0px" x1="150.0" x2="150.0" y1="75.0" y2="50.0" />
  <line fill="none" stroke="black" stroke-dasharray="6.0" stroke-linecap="butt" stroke-width="7.0px" x1="120.0" x2="120.0" y1="75.0" y2="50.0" />
  <line fill="none" stroke="black" stroke-dasharray="6.0 12.0" stroke-linecap="butt" stroke-width="7.0px" x1="130.0" x2="130.0" y1="75.0" y2="50.0" />
  <line fill="none" stroke="black" stroke-dasharray="5.0" stroke-linecap="butt" stroke-width="7.0px" x1="100.0" x2="100.0" y1="75.0" y2="50.0" />
  <line fill="none" stroke="black" stroke-dasharray="5.0 10.0" stroke-linecap="butt" stroke-width="7.0px" x1="110.0" x2="110.0" y1="75.0" y2="50.0" />
  <line fill="none" stroke="black" stroke-dasharray="4.0" stroke-linecap="butt" stroke-width="7.0px" x1="80.0" x2="80.0" y1="75.0" y2="50.0" />
  <line fill="none" stroke="black" stroke-dasharray="4.0 8.0" stroke-linecap="butt" stroke-width="7.0px" x1="90.0" x2="90.0" y1="75.0" y2="50.0" />
  <line fill="none" stroke="black" stroke-dasharray="3.0" stroke-linecap="butt" stroke-width="7.0px" x1="60.0" x2="60.0" y1="75.0" y2="50.0" />
  <line fill="none" stroke="black" stroke-dasharray="3.0 6.0" stroke-linecap="butt" stroke-width="7.0px" x1="70.0" x2="70.0" y1="75.0" y2="50.0" />
  <line fill="none" stroke="black" stroke-dasharray="2.0" stroke-linecap="butt" stroke-width="7.0px" x1="40.0" x2="40.0" y1="75.0" y2="50.0" />
  <line fill="none" stroke="black" stroke-dasharray="2.0 4.0" stroke-linecap="butt" stroke-width="7.0px" x1="50.0" x2="50.0" y1="75.0" y2="50.0" />
  <line fill="none" stroke="black" stroke-dasharray="1.0" stroke-linecap="butt" stroke-width="7.0px" x1="20.0" x2="20.0" y1="75.0" y2="50.0" />
  <line fill="none" stroke="black" stroke-dasharray="1.0 2.0" stroke-linecap="butt" stroke-width="7.0px" x1="30.0" x2="30.0" y1="75.0" y2="50.0" />
  <line fill="none" stroke="black" stroke-dasharray="11.0" stroke-linecap="butt" stroke-width="8.0px" x1="220.0" x2="220.0" y1="50.0" y2="25.0" />
  <line fill="none" stroke="black" stroke-dasharray="11.0 22.0" stroke-linecap="butt" stroke-width="8.0px" x1="230.0" x2="230.0" y1="50.0" y2="25.0" />
  <line fill="none" stroke="black" stroke-dasharray="10.0" stroke-linecap="butt" stroke-width="8.0px" x1="200.0" x2="200.0" y1="50.0" y2="25.0" />
  <line fill="none" stroke="black" stroke-dasharray="10.0 20.0" stroke-linecap="butt" stroke-width="8.0px" x1="210.0" x2="210.0" y1="50.0" y2="25.0" />
  <line fill="none" stroke="black" stroke-dasharray="9.0" stroke-linecap="butt" stroke-width="8.0px" x1="180.0" x2="180.0" y1="50.0" y2="25.0" />
  <line fill="none" stroke="black" stroke-dasharray="9.0 18.0" stroke-linecap="butt" stroke-width="8.0px" x1="190.0" x2="190.0" y1="50.0" y2="25.0" />
  <line fill="none" stroke="black" stroke-dasharray="8.0" stroke-linecap="butt" stroke-width="8.0px" x1="160.0" x2="160.0" y1="50.0" y2="25.0" />
  <line fill="none" stroke="black" stroke-dasharray="8.0 16.0" stroke-linecap="butt" stroke-width="8.0px" x1="170.0" x2="170.0" y1="50.0" y2="25.0" />
  <line fill="none" stroke="black" stroke-dasharray="7.0" stroke-linecap="butt" stroke-width="8.0px" x1="140.0" x2="140.0" y1="50.0" y2="25.0" />
  <line fill="none" stroke="black" stroke-dasharray="7.0 14.0" stroke-linecap="butt" stroke-width="8.0px" x1="150.0" x2="150.0" y1="50.0" y2="25.0" />
  <line fill="none" stroke="black" stroke-dasharray="6.0" stroke-linecap="butt" stroke-width="8.0px" x1="120.0" x2="120.0" y1="50.0" y2="25.0" />
  <line fill="none" stroke="black" stroke-dasharray="6.0 12.0" stroke-linecap="butt" stroke-width="8.0px" x1="130.0" x2="130.0" y1="50.0" y2="25.0" />
  <line fill="none" stroke="black" stroke-dasharray="5.0" stroke-linecap="butt" stroke-width="8.0px" x1="100.0" x2="100.0" y1="50.0" y2="25.0" />
  <line fill="none" stroke="black" stroke-dasharray="5.0 10.0" stroke-linecap="butt" stroke-width="8.0px" x1="110.0" x2="110.0" y1="50.0" y2="25.0" />
  <line fill="none" stroke="black" stroke-dasharray="4.0" stroke-linecap="butt" stroke-width="8.0px" x1="80.0" x2="80.0" y1="50.0" y2="25.0" />
  <line fill="none" stroke="black" stroke-dasharray="4.0 8.0" stroke-linecap="butt" stroke-width="8.0px" x1="90.0" x2="90.0" y1="50.0" y2="25.0" />
  <line fill="none" stroke="black" stroke-dasharray="3.0" stroke-linecap="butt" stroke-width="8.0px" x1="60.0" x2="60.0" y1="50.0" y2="25.0" />
  <line fill="none" stroke="black" stroke-dasharray="3.0 6.0" stroke-linecap="butt" stroke-width="8.0px" x1="70.0" x2="70.0" y1="50.0" y2="25.0" />
  <line fill="none" stroke="black" stroke-dasharray="2.0" stroke-linecap="butt" stroke-width="8.0px" x1="40.0" x2="40.0" y1="50.0" y2="25.0" />
  <line fill="none" stroke="black" stroke-dasharray="2.0 4.0" stroke-linecap="butt" stroke-width="8.0px" x1="50.0" x2="50.0" y1="50.0" y2="25.0" />
  <line fill="none" stroke="black" stroke-dasharray="1.0" stroke-linecap="butt" stroke-width="8.0px" x1="20.0" x2="20.0" y1="50.0" y2="25.0" />
  <line fill="none" stroke="black" stroke-dasharray="1.0 2.0" stroke-linecap="butt" stroke-width="8.0px" x1="30.0" x2="30.0" y1="50.0" y2="25.0" />
</g>
</svg>
